<?xml version="1.0" standalone="no"?>
<!DOCTYPE svg PUBLIC "-//W3C//DTD SVG 1.1//EN" "http://www.w3.org/Graphics/SVG/1.1/DTD/svg11.dtd" >
<svg xmlns="http://www.w3.org/2000/svg" xmlns:xlink="http://www.w3.org/1999/xlink" version="1.1">
<metadata>
Created by FontForge 20170731 at Tue Apr 12 13:50:49 2022
 By Aleksey,,,
Copyright (c) 2020 by Thierry Blancpain. All rights reserved.
</metadata>
<defs>
<font id="GTMaruTrial-BoldOblique" horiz-adv-x="1422" >
  <font-face 
    font-family="GT Maru Trial Bold Oblique"
    font-weight="700"
    font-style="oblique"
    font-stretch="normal"
    units-per-em="2048"
    panose-1="0 0 0 0 0 0 0 0 0 0"
    ascent="1808"
    descent="-240"
    x-height="1100"
    cap-height="1464"
    bbox="-182 -367 3126 1577"
    underline-thickness="100"
    underline-position="-355"
    slope="-7"
    unicode-range="U+0020-1EF3"
  />
<missing-glyph horiz-adv-x="1026" 
d="M816 703v326h-63v-326h63zM50 0v1440h926v-1440h-926zM93 864q0 -72 37 -119t101 -47q65 0 89 40l8 -35h47v179h-138v-57h83v-4q0 -24 -18.5 -46t-56.5 -22q-41 0 -62.5 29t-21.5 79q0 52 21.5 83t61.5 31q49 0 63 -47l62 25q-29 80 -124 80q-72 0 -112 -47t-40 -122z
M130 572h90v-262h63v262h90v59h-243v-59zM355 310h62v101q0 72 57 72q12 0 20 -1v57q-5 2 -20 2q-44 0 -61 -44v38h-58v-225zM413 703h59v103q0 31 15 51.5t46 20.5q14 0 21 -2v56q-2 0 -9 2t-13 2q-41 0 -64 -43v36h-55v-226zM507 573h65v63h-65v-63zM508 310h63v225h-63
v-225zM566 969h67v60h-67v-60zM568 703h62v226h-62v-226zM587 374q0 -32 21.5 -50.5t56.5 -18.5q52 0 72 38q0 -22 2 -33h60q-7 26 -7 43v83q0 56 -20 80.5t-74 24.5q-50 0 -76.5 -20t-28.5 -56h59q4 31 43 31q22 0 30 -11.5t8 -34.5q-61 -5 -103 -15q-43 -19 -43 -61z
M648 377q0 27 47 33l38 4v-7q0 -27 -13.5 -42t-35.5 -15q-17 0 -26.5 8t-9.5 19zM661 703h59v326h-59v-326zM825 310h60v326h-60v-326zM849 969h65v60h-65v-60zM850 703h61v226h-61v-226z" />
    <glyph glyph-name=".notdef" horiz-adv-x="1026" 
d="M816 703v326h-63v-326h63zM50 0v1440h926v-1440h-926zM93 864q0 -72 37 -119t101 -47q65 0 89 40l8 -35h47v179h-138v-57h83v-4q0 -24 -18.5 -46t-56.5 -22q-41 0 -62.5 29t-21.5 79q0 52 21.5 83t61.5 31q49 0 63 -47l62 25q-29 80 -124 80q-72 0 -112 -47t-40 -122z
M130 572h90v-262h63v262h90v59h-243v-59zM355 310h62v101q0 72 57 72q12 0 20 -1v57q-5 2 -20 2q-44 0 -61 -44v38h-58v-225zM413 703h59v103q0 31 15 51.5t46 20.5q14 0 21 -2v56q-2 0 -9 2t-13 2q-41 0 -64 -43v36h-55v-226zM507 573h65v63h-65v-63zM508 310h63v225h-63
v-225zM566 969h67v60h-67v-60zM568 703h62v226h-62v-226zM587 374q0 -32 21.5 -50.5t56.5 -18.5q52 0 72 38q0 -22 2 -33h60q-7 26 -7 43v83q0 56 -20 80.5t-74 24.5q-50 0 -76.5 -20t-28.5 -56h59q4 31 43 31q22 0 30 -11.5t8 -34.5q-61 -5 -103 -15q-43 -19 -43 -61z
M648 377q0 27 47 33l38 4v-7q0 -27 -13.5 -42t-35.5 -15q-17 0 -26.5 8t-9.5 19zM661 703h59v326h-59v-326zM825 310h60v326h-60v-326zM849 969h65v60h-65v-60zM850 703h61v226h-61v-226z" />
    <glyph glyph-name=".null" horiz-adv-x="0" 
 />
    <glyph glyph-name="nonmarkingreturn" horiz-adv-x="682" 
 />
    <glyph glyph-name="space" unicode=" " horiz-adv-x="599" 
 />
    <glyph glyph-name="space" unicode="&#xa0;" horiz-adv-x="599" 
 />
    <glyph glyph-name="comma" unicode="," horiz-adv-x="613" 
d="M91 -259q-83 0 -83 65q0 62 80 96q47 20 72 39t39 50q-66 8 -104 46.5t-38 98.5q0 88 64 150t154 62q83 0 129.5 -54.5t46.5 -143.5q0 -81 -35 -158.5t-88.5 -131t-117 -86.5t-119.5 -33z" />
    <glyph glyph-name="hyphen" unicode="-" horiz-adv-x="1177" 
d="M315 471q-64 0 -103 37t-39 97q0 75 52 126t129 51h527q64 0 103 -37t39 -96q0 -75 -52 -126.5t-128 -51.5h-528z" />
    <glyph glyph-name="period" unicode="." horiz-adv-x="613" 
d="M235 -24q-75 0 -124 48t-49 121q0 90 65 154.5t156 64.5q77 0 126.5 -47.5t49.5 -120.5q0 -90 -66 -155t-158 -65z" />
    <glyph glyph-name="zero" unicode="0" horiz-adv-x="1490" 
d="M673 -30q-258 0 -405 164t-147 446q0 254 94.5 457.5t263 318t378.5 114.5q259 0 406.5 -164t147.5 -446q0 -254 -95 -457.5t-263.5 -318t-379.5 -114.5zM455 603q0 -163 66.5 -246t189.5 -83q165 0 265 154.5t100 408.5q0 162 -66 245.5t-189 83.5q-166 0 -266 -154.5
t-100 -408.5z" />
    <glyph glyph-name="one" unicode="1" horiz-adv-x="1024" 
d="M597 -24q-72 0 -111 43.5t-31 112.5l107 870q-58 -70 -150.5 -112.5t-178.5 -42.5q-56 0 -89.5 34.5t-33.5 88.5q0 106 129 171q84 31 179 91.5t150 122.5q46 38 67 54t63 35.5t80 19.5q155 0 132 -175l-142 -1157q-8 -69 -56 -112.5t-115 -43.5z" />
    <glyph glyph-name="two" unicode="2" horiz-adv-x="1288" 
d="M176 0q-143 0 -143 142q0 182 138.5 326t419.5 269q170 76 241 140t71 151q0 64 -49 106.5t-136 42.5q-186 0 -308 -205q-54 -74 -142 -74q-59 0 -91.5 32t-32.5 87q0 88 81 202q79 115 223 183t305 68q216 0 341 -101.5t125 -289.5q0 -93 -25 -172t-66 -136.5
t-104.5 -108t-127 -85t-147.5 -69.5q-128 -56 -195.5 -102t-95.5 -102h551q63 0 100 -35t37 -94q0 -76 -49.5 -125.5t-125.5 -49.5h-795z" />
    <glyph glyph-name="three" unicode="3" horiz-adv-x="1229" 
d="M532 -30q-158 0 -282 48.5t-177 133.5q-39 64 -39 132q0 80 43.5 127t115.5 47q39 0 67 -13.5t60 -45.5q84 -123 252 -123q113 0 188 63t75 165q0 80 -59.5 122t-174.5 42q-25 0 -77 -5t-68 -5q-51 0 -83 26.5t-32 70.5q0 64 79 124l332 260h-448q-63 0 -101.5 36
t-38.5 93q0 73 51 122.5t126 49.5h765q70 0 109 -32t39 -89q0 -88 -90 -157l-369 -287q175 -13 269.5 -102.5t94.5 -242.5q0 -244 -177 -402t-450 -158z" />
    <glyph glyph-name="four" unicode="4" horiz-adv-x="1372" 
d="M876 -24q-65 0 -102 45.5t-28 117.5l19 156h-596q-65 0 -102.5 35t-37.5 88q0 74 65 144l724 779q58 62 106.5 92.5t111.5 30.5q82 0 120.5 -52t29.5 -134l-86 -700h78q64 0 101 -34.5t37 -90.5q0 -68 -49.5 -113t-123.5 -45h-78l-19 -156q-9 -71 -56.5 -117t-113.5 -46z
M450 578h350l55 448z" />
    <glyph glyph-name="five" unicode="5" horiz-adv-x="1286" 
d="M531 -30q-155 0 -273.5 50t-165.5 129q-38 64 -38 125q0 76 45 123t116 47q37 0 64.5 -13.5t62.5 -45.5q68 -109 263 -109q112 0 188.5 68t76.5 168q0 80 -54.5 126t-147.5 46q-113 0 -220 -51q-71 -29 -126 -29q-66 0 -100.5 33t-34.5 94q0 28 13 90l98 480
q12 63 59 101t108 38h632q63 0 100 -35t37 -94q0 -76 -49 -125.5t-125 -49.5h-491l-53 -244q118 55 255 55q192 0 305.5 -105t113.5 -284q0 -256 -186 -422t-473 -166z" />
    <glyph glyph-name="six" unicode="6" horiz-adv-x="1349" 
d="M862 1470q280 0 400 -146q44 -51 44 -112q0 -74 -44 -121t-112 -47q-52 0 -116 39q-89 70 -232 70q-133 0 -223 -82t-107 -224q129 137 347 137q186 0 305.5 -112t119.5 -308q0 -167 -79 -303t-219 -213.5t-311 -77.5q-111 0 -203 32t-164 96.5t-112 171t-40 245.5
q0 214 53.5 392t150.5 302t236 192.5t306 68.5zM447 446q0 -89 56 -142.5t150 -53.5q113 0 188.5 76t75.5 189q0 89 -56 142.5t-149 53.5q-115 0 -190 -75.5t-75 -189.5z" />
    <glyph glyph-name="seven" unicode="7" horiz-adv-x="1231" 
d="M377 -24q-56 0 -96.5 35.5t-40.5 98.5q0 46 28 138q49 168 209 428t360 460h-572q-64 0 -101 35t-37 94q0 75 49.5 125t124.5 50h844q64 0 101.5 -35.5t37.5 -93.5q0 -77 -73 -155q-246 -257 -385 -488.5t-248 -516.5q-36 -85 -80.5 -130t-120.5 -45z" />
    <glyph glyph-name="eight" unicode="8" horiz-adv-x="1308" 
d="M583 -30q-242 0 -386.5 102t-144.5 271q0 141 82 253.5t215 152.5q-88 31 -135.5 101t-47.5 168q0 201 167 326.5t435 125.5q231 0 366.5 -96t135.5 -259q0 -127 -71.5 -228t-189.5 -138q100 -33 154.5 -112.5t54.5 -189.5q0 -211 -177 -344t-458 -133zM397 403
q0 -76 60 -122.5t159 -46.5q115 0 190.5 61.5t75.5 157.5q0 79 -59 125.5t-160 46.5q-116 0 -191 -62.5t-75 -159.5zM496 1018q0 -69 53 -109t145 -40q106 0 172.5 54t66.5 139q0 69 -54 110t-143 41q-105 0 -172.5 -55t-67.5 -140z" />
    <glyph glyph-name="nine" unicode="9" horiz-adv-x="1349" 
d="M529 -30q-280 0 -400 146q-44 51 -44 112q0 74 44 121t112 47q52 0 116 -39q89 -70 232 -70q133 0 223 82t107 224q-129 -137 -347 -137q-186 0 -305.5 112t-119.5 308q0 167 79 303t219 213.5t311 77.5q111 0 203 -32t164 -96.5t112 -171t40 -245.5q0 -214 -53.5 -392
t-150.5 -302t-236 -192.5t-306 -68.5zM474 925q0 -89 56 -142.5t149 -53.5q115 0 190 75.5t75 189.5q0 89 -56 142.5t-150 53.5q-113 0 -188.5 -76t-75.5 -189z" />
    <glyph glyph-name="A" unicode="A" horiz-adv-x="1559" 
d="M128 -28q-56 0 -94.5 38.5t-38.5 93.5q0 51 37 122l526 994q69 131 145.5 190.5t188.5 59.5t174 -58.5t99 -191.5l283 -994q11 -41 11 -81q0 -74 -53 -123.5t-117 -49.5q-121 0 -146 102l-60 230h-667l-117 -230q-52 -102 -171 -102zM568 604h436l-148 566z" />
    <glyph glyph-name="B" unicode="B" horiz-adv-x="1535" 
d="M292 0q-70 1 -107 46t-28 116l137 1115q9 72 57 117t118 46h512q209 0 328 -98t119 -265q0 -128 -63 -218.5t-174 -130.5q83 -32 127.5 -97.5t44.5 -152.5q0 -135 -72 -244.5t-199 -171.5t-285 -62h-512h-3zM490 305h351q87 0 139.5 48t52.5 128q0 60 -40.5 94t-113.5 34
h-351zM558 852h344q86 0 137.5 44t51.5 116q0 57 -40.5 90t-112.5 33h-345z" />
    <glyph glyph-name="C" unicode="C" horiz-adv-x="1625" 
d="M788 -30q-291 0 -465.5 174.5t-174.5 460.5q0 241 108 439.5t297 312t419 113.5q368 0 537 -229q57 -80 57 -159q0 -73 -51.5 -126t-119.5 -53q-79 0 -133 71q-107 177 -325 177q-127 0 -232.5 -65.5t-166 -180.5t-60.5 -253q0 -162 96.5 -262.5t256.5 -100.5
q214 0 369 178q74 70 153 70q56 0 93 -39t37 -96q0 -44 -27.5 -99t-70.5 -98q-231 -235 -597 -235z" />
    <glyph glyph-name="D" unicode="D" horiz-adv-x="1659" 
d="M295 0q-71 0 -109 45t-30 117l137 1115q9 73 58 118t120 45h463q284 0 451 -167t167 -442q0 -175 -60.5 -329.5t-166 -264.5t-253 -173.5t-315.5 -63.5h-462zM491 309h303q177 0 298 138t121 340q0 153 -86 248.5t-231 95.5h-304z" />
    <glyph glyph-name="E" unicode="E" horiz-adv-x="1432" 
d="M294 0q-71 0 -108.5 45t-29.5 118l137 1114q9 73 58 118t120 45h749q64 0 103 -37t39 -97q0 -76 -52 -127.5t-128 -51.5h-590l-32 -254h534q60 0 97 -35.5t37 -91.5q0 -70 -49 -118t-120 -48h-535l-32 -267h593q64 0 103 -37t39 -97q0 -76 -52 -127.5t-129 -51.5h-752z
" />
    <glyph glyph-name="F" unicode="F" horiz-adv-x="1354" 
d="M292 -24q-71 0 -109 45t-29 118l139 1138q9 72 58 117.5t121 45.5h752q64 0 103 -37t39 -97q0 -76 -52 -127.5t-129 -51.5h-593l-35 -284h522q64 0 103 -37.5t39 -97.5q0 -76 -52 -127t-129 -51h-522l-48 -391q-9 -73 -58 -118t-120 -45z" />
    <glyph glyph-name="G" unicode="G" horiz-adv-x="1697" 
d="M812 -30q-305 0 -484.5 173t-179.5 460q0 180 66.5 341t181 276t274 182.5t338.5 67.5q279 0 460 -140q114 -89 114 -194q0 -81 -49.5 -124t-110.5 -43q-75 0 -142 53q-110 137 -322 137q-202 0 -341.5 -146.5t-139.5 -359.5q0 -167 103 -269.5t280 -102.5
q154 0 250 66.5t122 188.5h-343q-59 0 -98.5 36.5t-39.5 92.5q0 72 50 120t124 48h509q62 0 101.5 -35t39.5 -104q0 -148 -60 -282t-162 -231t-243.5 -154t-297.5 -57z" />
    <glyph glyph-name="H" unicode="H" horiz-adv-x="1658" 
d="M1225 -24q-71 0 -109 45t-29 118l53 435h-616l-54 -435q-9 -73 -58 -118t-120 -45t-109 45t-29 118l142 1162q9 73 58 118t120 45t109.5 -45t29.5 -118l-53 -427h617l52 427q9 73 58 118t120 45t109.5 -45t29.5 -118l-143 -1162q-9 -73 -58 -118t-120 -45z" />
    <glyph glyph-name="I" unicode="I" horiz-adv-x="725" 
d="M292 -24q-71 0 -109 45t-29 118l142 1162q9 73 58 118t120 45t109.5 -45t29.5 -118l-143 -1162q-9 -73 -58 -118t-120 -45z" />
    <glyph glyph-name="J" unicode="J" horiz-adv-x="1328" 
d="M536 -30q-157 0 -271.5 67.5t-155.5 180.5q-39 101 -39 198q0 125 50.5 191t131.5 66q70 0 106 -35.5t36 -98.5q1 -125 45 -187t139 -62q113 0 180 63.5t84 204.5l92 743q9 73 58 118t120 45q70 0 108.5 -45.5t29.5 -117.5l-90 -735q-19 -154 -75.5 -270t-141 -186.5
t-187 -105t-220.5 -34.5z" />
    <glyph glyph-name="K" unicode="K" horiz-adv-x="1562" 
d="M293 -24q-71 0 -109.5 45t-29.5 118l142 1162q9 73 58.5 118t121.5 45q71 0 109 -45t29 -118l-58 -478l711 582q65 52 140 52q46 0 81 -34t35 -78q0 -88 -106 -173l-435 -354l379 -571q52 -79 52 -124q0 -63 -52 -105t-116 -42q-38 0 -77.5 19t-61.5 53l-375 565
l-223 -181l-36 -293q-9 -73 -58.5 -118t-120.5 -45z" />
    <glyph glyph-name="L" unicode="L" horiz-adv-x="1299" 
d="M295 0q-70 0 -108.5 45t-30.5 117l140 1139q9 72 58 117.5t120 45.5t109.5 -45.5t29.5 -117.5l-121 -988h549q64 0 103 -37t39 -97q0 -76 -52 -127.5t-128 -51.5h-708z" />
    <glyph glyph-name="M" unicode="M" horiz-adv-x="1972" 
d="M290 -24q-67 0 -105.5 47t-30.5 120l138 1126q12 90 69.5 142.5t138.5 52.5q72 0 112 -35t76 -119l302 -729l481 729q56 84 104.5 119t119.5 35q82 0 127 -52.5t34 -142.5l-138 -1126q-9 -73 -59 -120t-118 -47t-106 48t-30 119l87 714l-343 -529q-66 -99 -108 -133.5
t-103 -34.5t-95.5 35t-74.5 133l-213 528l-87 -713q-8 -71 -59 -119t-119 -48z" />
    <glyph glyph-name="N" unicode="N" horiz-adv-x="1665" 
d="M292 -24q-71 0 -109 45.5t-29 117.5l139 1134q11 88 65 139.5t136 51.5q57 0 96 -29.5t87 -108.5l465 -794l94 769q9 72 58 117.5t120 45.5q70 0 109 -45.5t30 -117.5l-140 -1133q-10 -87 -64 -139.5t-132 -52.5q-54 0 -95.5 29t-84.5 99l-475 786l-92 -751
q-9 -72 -58 -117.5t-120 -45.5z" />
    <glyph glyph-name="O" unicode="O" horiz-adv-x="1764" 
d="M811 -30q-301 0 -481.5 177t-180.5 464q0 179 65.5 338.5t178 273.5t269.5 180.5t333 66.5q300 0 481 -176.5t181 -463.5q0 -180 -65.5 -339.5t-178 -273.5t-269.5 -180.5t-333 -66.5zM479 657q0 -165 101.5 -266.5t269.5 -101.5q132 0 242 65t173 178.5t63 250.5
q0 165 -102 266.5t-270 101.5q-201 0 -339 -143t-138 -351z" />
    <glyph glyph-name="P" unicode="P" horiz-adv-x="1494" 
d="M292 -24q-71 0 -109 45t-29 118l139 1138q9 72 58 117.5t121 45.5h450q222 0 357.5 -113.5t135.5 -304.5q0 -237 -173.5 -392.5t-438.5 -155.5h-292l-41 -335q-9 -72 -58 -117.5t-120 -45.5zM548 775h312q96 0 159 59t63 149q0 71 -48 113.5t-130 42.5h-311z" />
    <glyph glyph-name="Q" unicode="Q" horiz-adv-x="1764" 
d="M1319 -110q-71 0 -117 63l-60 82q-156 -65 -331 -65q-301 0 -481.5 177t-180.5 464q0 179 65.5 338.5t178 273.5t269.5 180.5t333 66.5q300 0 481 -176.5t181 -463.5q0 -181 -65 -340t-182 -276l47 -65q31 -41 31 -91q0 -65 -52.5 -116.5t-116.5 -51.5zM479 657
q0 -165 101.5 -266.5t269.5 -101.5q47 0 100 10l-100 138q-31 43 -31 91q0 63 51 115t112 52q76 0 122 -63l119 -162q105 134 105 313q0 165 -102 266.5t-270 101.5q-201 0 -339 -143t-138 -351z" />
    <glyph glyph-name="R" unicode="R" horiz-adv-x="1530" 
d="M292 -24q-71 0 -109 45t-29 118l139 1138q9 72 58 117.5t121 45.5h464q214 0 346.5 -114t132.5 -300q0 -155 -82 -280t-222 -193l179 -319q29 -51 29 -101q0 -67 -53 -111.5t-118 -44.5q-84 0 -122 69l-243 442h-270l-43 -349q-9 -72 -58 -117.5t-120 -45.5zM550 788h318
q93 0 153.5 57t60.5 144q0 68 -47 109t-124 41h-318z" />
    <glyph glyph-name="S" unicode="S" horiz-adv-x="1461" 
d="M673 -30q-292 0 -470 142q-50 40 -78 92.5t-28 105.5q0 74 50.5 125.5t117.5 51.5q60 0 104 -46q73 -86 160.5 -130t204.5 -44q109 0 171.5 43t62.5 117q0 48 -34 76t-99 41l-269 57q-169 35 -256 119t-87 228q0 232 172.5 377t448.5 145q243 0 427 -131q51 -36 79 -86.5
t28 -104.5q0 -79 -45.5 -129.5t-112.5 -50.5q-68 0 -140 61q-114 145 -304 145q-91 0 -151.5 -38t-60.5 -113q0 -50 36 -74t116 -43l256 -60q160 -38 246.5 -116t86.5 -225q0 -239 -175 -387t-457 -148z" />
    <glyph glyph-name="T" unicode="T" horiz-adv-x="1400" 
d="M630 -24q-71 0 -109.5 45t-29.5 118l121 988h-312q-63 0 -102 37t-39 97q0 76 52 127.5t128 51.5h941q63 0 102 -37t39 -97q0 -76 -52 -127.5t-127 -51.5h-313l-121 -988q-9 -73 -58 -118t-120 -45z" />
    <glyph glyph-name="U" unicode="U" horiz-adv-x="1587" 
d="M722 -30q-279 0 -426 163.5t-115 433.5l90 734q9 72 59.5 117.5t121.5 45.5t108 -45t28 -118l-86 -704q-17 -138 54 -223t205 -85q135 0 226.5 85t108.5 223l87 704q8 72 57 117.5t119 45.5q71 0 110 -45.5t30 -117.5l-90 -734q-32 -270 -220 -433.5t-467 -163.5z" />
    <glyph glyph-name="V" unicode="V" horiz-adv-x="1550" 
d="M704 -26q-220 0 -278 268l-237 1018q-4 18 -4 40q0 69 52.5 116.5t129.5 47.5q56 0 91.5 -31t47.5 -87l240 -1035l494 1035q25 56 68.5 87t98.5 31q66 0 107 -35.5t41 -92.5q0 -33 -19 -76l-488 -1018q-64 -138 -148.5 -203t-195.5 -65z" />
    <glyph glyph-name="W" unicode="W" horiz-adv-x="2247" 
d="M553 -26q-108 0 -176.5 79.5t-81.5 211.5l-113 973q-2 31 2 60q7 71 62 118.5t127 47.5q60 0 99.5 -35.5t43.5 -93.5l90 -999l357 902q38 100 109.5 163t162.5 63q90 0 146.5 -62t70.5 -164l136 -904l336 1001q18 59 65.5 94t109.5 35q65 0 107.5 -40.5t42.5 -101.5
q0 -40 -16 -84l-351 -972q-46 -133 -133.5 -212.5t-196.5 -79.5q-110 0 -176.5 82.5t-83.5 227.5l-106 772l-297 -772q-52 -145 -139 -227.5t-197 -82.5z" />
    <glyph glyph-name="X" unicode="X" horiz-adv-x="1504" 
d="M1185 -24q-86 0 -145 87l-298 436l-398 -436q-81 -87 -168 -87q-60 0 -97.5 34.5t-37.5 87.5q0 68 57 125l473 502l-352 490q-28 39 -28 83q0 75 52 120.5t121 45.5q45 0 77 -21.5t64 -65.5l300 -415l396 416q41 42 77 64t84 22q62 0 102 -35t40 -88q0 -71 -55 -124
l-471 -483l350 -511q26 -38 26 -82q0 -74 -49.5 -119.5t-119.5 -45.5z" />
    <glyph glyph-name="Y" unicode="Y" horiz-adv-x="1449" 
d="M196 1245q-18 29 -18 63q0 64 49.5 110t118.5 46q37 0 66 -17.5t43.5 -36.5t34.5 -55l275 -483l392 483q29 36 48 55.5t52 36.5t71 17q59 0 96 -34.5t37 -87.5t-36 -97l-536 -654l-56 -452q-9 -73 -58 -118t-121 -45q-71 0 -109 45t-29 118l55 451z" />
    <glyph glyph-name="Z" unicode="Z" horiz-adv-x="1463" 
d="M186 0q-60 0 -96 35t-36 92q0 35 15.5 69t30 52t37.5 42l834 856h-642q-61 0 -98.5 35t-37.5 91q0 70 50.5 119t121.5 49h937q59 0 96.5 -35.5t37.5 -92.5q0 -80 -83 -165l-826 -853h654q60 0 97.5 -36t37.5 -92q0 -70 -49.5 -118t-121.5 -48h-959z" />
    <glyph glyph-name="a" unicode="a" horiz-adv-x="1324" 
d="M442 -29q-157 0 -249 76t-92 204q0 143 89 237t257 132l257 59q54 11 79 35t25 66q0 43 -35.5 67.5t-99.5 24.5q-124 0 -252 -101q-93 -64 -144 -64q-50 0 -80 26t-30 69q0 77 73 148q84 86 205.5 133t265.5 47q210 0 313.5 -99t79.5 -288l-53 -429q-6 -53 37 -53
q25 0 50 23q28 24 58 24t49 -24t19 -60q0 -79 -68 -153q-39 -43 -96.5 -69.5t-114.5 -26.5q-149 0 -211 123q-133 -127 -332 -127zM423 305q0 -43 35 -68.5t95 -25.5q76 0 134 45t72 114l17 136q-36 -26 -100 -41l-102 -22q-71 -15 -111 -51t-40 -87z" />
    <glyph glyph-name="b" unicode="b" horiz-adv-x="1445" 
d="M742 -30q-215 0 -316 125q-17 -54 -60.5 -86.5t-100.5 -32.5q-66 0 -102.5 43.5t-28.5 112.5l145 1176q8 69 55.5 112.5t113.5 43.5q67 0 102.5 -43.5t27.5 -112.5l-37 -307q135 129 344 129q210 0 340 -134.5t130 -355.5q0 -185 -81 -339t-222 -242.5t-310 -88.5z
M477 503q0 -114 67 -186t179 -72q136 0 229 102t93 252q0 117 -68.5 186.5t-178.5 69.5q-134 0 -227.5 -102t-93.5 -250z" />
    <glyph glyph-name="c" unicode="c" horiz-adv-x="1264" 
d="M601 -30q-227 0 -368.5 138t-141.5 360q0 136 51 258.5t138 211t208 140.5t255 52q268 0 390 -144q68 -82 68 -166q0 -70 -41.5 -112t-99.5 -42q-46 0 -77 18.5t-60 58.5q-68 112 -204 112q-133 0 -225.5 -103t-92.5 -249q0 -116 67.5 -187t175.5 -71q142 0 241 123
q34 40 66.5 57t76.5 17q50 0 83.5 -32t33.5 -81q0 -47 -32.5 -103.5t-84.5 -103.5q-75 -70 -187 -111t-240 -41z" />
    <glyph glyph-name="d" unicode="d" horiz-adv-x="1446" 
d="M561 -30q-210 0 -340 134.5t-130 355.5q0 185 80.5 339t221.5 242.5t310 88.5q209 0 313 -130l37 308q8 69 55.5 112.5t113.5 43.5t102.5 -43.5t28.5 -112.5l-144 -1176q-8 -69 -55.5 -112.5t-113.5 -43.5q-57 0 -92.5 32.5t-39.5 86.5q-131 -125 -347 -125zM401 501
q0 -117 68 -186.5t178 -69.5q135 0 228.5 102.5t93.5 249.5q0 114 -67 186t-180 72q-136 0 -228.5 -102t-92.5 -252z" />
    <glyph glyph-name="e" unicode="e" horiz-adv-x="1295" 
d="M626 -30q-248 0 -392 131.5t-144 358.5q0 187 84 340.5t232 241.5t327 88q220 0 350 -120.5t130 -315.5q0 -124 -45 -181.5t-137 -57.5h-647q4 -98 82.5 -154.5t207.5 -56.5q141 0 232 79q75 46 133 46q98 0 98 -94q0 -67 -53 -128q-69 -83 -194.5 -130t-263.5 -47z
M412 685h508q-2 98 -62 153.5t-166 55.5t-180.5 -56t-99.5 -153z" />
    <glyph glyph-name="f" unicode="f" horiz-adv-x="1009" 
d="M359 -24q-66 0 -102 43.5t-28 112.5l86 699h-112q-57 0 -91 32.5t-34 83.5q0 65 45.5 109t112.5 44h112l1 12q20 168 136 263t301 95q156 0 222 -58q45 -40 38 -106q-5 -50 -39 -81t-83 -31q-24 0 -52 9q-44 18 -89 18q-63 0 -95 -28t-40 -88l-1 -5h216q56 0 90.5 -32
t34.5 -84q0 -65 -45.5 -109t-112.5 -44h-216l-85 -699q-9 -69 -56.5 -112.5t-113.5 -43.5z" />
    <glyph glyph-name="g" unicode="g" horiz-adv-x="1371" 
d="M555 -269q-237 0 -363 61.5t-126 177.5q0 73 45 129t115 87q-58 52 -58 137q0 75 36 128t108 94q-86 78 -86 198q0 173 144 280t379 107q147 0 251 -43l92 70q60 45 120 45q43 0 69.5 -25.5t26.5 -62.5q0 -68 -83 -137l-57 -46q19 -51 19 -104q0 -175 -143.5 -281.5
t-379.5 -106.5q-101 0 -187 22q-31 -23 -31 -55q0 -54 75 -54h345q154 0 236 -60.5t82 -173.5q0 -184 -165 -285.5t-464 -101.5zM367 38q0 -95 229 -95q276 0 276 113q0 62 -102 62h-320q-26 0 -38 1q-45 -34 -45 -81zM529 768q0 -57 44 -90t120 -33q87 0 140.5 44t53.5 117
q0 57 -42 89.5t-117 32.5q-89 0 -144 -44.5t-55 -115.5z" />
    <glyph glyph-name="h" unicode="h" 
d="M266 -21q-66 0 -102.5 43.5t-28.5 111.5l144 1177q8 68 55.5 111.5t114.5 43.5q66 0 102 -43.5t28 -111.5l-38 -310q57 62 143 95.5t185 33.5q205 0 313 -124t81 -346l-65 -528q-8 -68 -56 -112t-113 -44q-66 0 -102.5 44.5t-28.5 111.5l60 481q14 120 -37.5 182.5
t-156.5 62.5q-110 0 -183.5 -70t-87.5 -185h-1l-57 -469q-8 -68 -55.5 -111.5t-113.5 -43.5z" />
    <glyph glyph-name="i" unicode="i" horiz-adv-x="659" 
d="M259 -24q-66 0 -102.5 44t-28.5 112l102 836q8 68 56 112t113 44q66 0 102.5 -43.5t28.5 -112.5l-103 -836q-8 -69 -55.5 -112.5t-112.5 -43.5zM268 1390q0 79 54.5 133t133.5 54q67 0 107 -39.5t40 -101.5q0 -79 -54.5 -133t-133.5 -54q-67 0 -107 39.5t-40 101.5z" />
    <glyph glyph-name="j" unicode="j" horiz-adv-x="704" 
d="M104 -270q-68 0 -123.5 25t-85.5 68q-19 30 -19 67q0 56 36 101t81 45q15 0 26 -7q29 -18 67 -18q35 0 58 30t30 80l104 847q8 69 55.5 112.5t113.5 43.5q65 0 102 -43.5t29 -112.5l-109 -886q-20 -162 -118.5 -257t-246.5 -95zM314 1390q0 79 54.5 133t133.5 54
q67 0 107 -39.5t40 -101.5q0 -79 -54.5 -133t-133.5 -54q-67 0 -107 39.5t-40 101.5z" />
    <glyph glyph-name="k" unicode="k" horiz-adv-x="1392" 
d="M1054 -20q-87 0 -132 70l-251 389l-219 -172l-17 -135q-8 -69 -55.5 -112.5t-113.5 -43.5t-102.5 43.5t-28.5 112.5l144 1176q8 69 55.5 112.5t114.5 43.5q66 0 102 -43.5t28 -112.5l-82 -672l519 410q61 49 98.5 65.5t80.5 16.5q53 0 86 -29.5t33 -79.5q0 -79 -92 -151
l-297 -231l249 -390q42 -66 42 -111q0 -67 -47.5 -111.5t-114.5 -44.5z" />
    <glyph glyph-name="l" unicode="l" horiz-adv-x="672" 
d="M266 -24q-66 0 -102.5 43.5t-28.5 112.5l144 1176q8 69 55.5 112.5t114.5 43.5q66 0 102 -43.5t28 -112.5l-144 -1176q-8 -69 -55.5 -112.5t-113.5 -43.5z" />
    <glyph glyph-name="m" unicode="m" horiz-adv-x="2128" 
d="M1735 -24q-65 0 -102 44.5t-29 111.5l59 481q15 120 -32 182.5t-147 62.5q-104 0 -173.5 -69.5t-83.5 -185.5l-58 -471q-8 -68 -56 -112t-113 -44q-66 0 -102.5 45t-27.5 111l59 481q14 120 -33 182.5t-147 62.5q-104 0 -173 -70t-83 -185h-1l-57 -471
q-9 -69 -56.5 -112.5t-112.5 -43.5q-66 0 -102.5 44t-28.5 112l102 836q8 69 56 112.5t114 43.5q57 0 92.5 -34t38.5 -90q56 63 138.5 96.5t178.5 33.5q233 0 331 -165q133 165 396 165q200 0 307 -124.5t80 -345.5l-65 -528q-8 -68 -56 -112t-113 -44z" />
    <glyph glyph-name="n" unicode="n" 
d="M266 -24q-66 0 -102.5 44t-28.5 112l102 836q8 69 56 112.5t114 43.5q57 0 93 -34t38 -91q58 63 144.5 97t186.5 34q205 0 312.5 -124t80.5 -346l-64 -528q-8 -68 -56 -112t-113 -44t-102 44.5t-29 111.5l59 481q15 120 -36 182.5t-158 62.5q-110 0 -183 -70t-87 -185h-1
l-57 -471q-9 -69 -56.5 -112.5t-112.5 -43.5z" />
    <glyph glyph-name="o" unicode="o" horiz-adv-x="1378" 
d="M617 -30q-237 0 -381.5 134.5t-144.5 359.5q0 188 86.5 340.5t240 239t342.5 86.5q238 0 382.5 -134.5t144.5 -359.5q0 -188 -87 -340.5t-240.5 -239t-342.5 -86.5zM401 502q0 -116 68.5 -186.5t181.5 -70.5q139 0 232.5 102t93.5 251q0 116 -68.5 186.5t-182.5 70.5
q-138 0 -231.5 -102t-93.5 -251z" />
    <glyph glyph-name="p" unicode="p" horiz-adv-x="1446" 
d="M236 -267q-67 0 -103 43.5t-28 112.5l132 1079q8 69 56 112.5t114 43.5q59 0 94 -35t37 -93q137 134 348 134q209 0 339 -134.5t130 -355.5q0 -185 -80.5 -339t-221 -242.5t-309.5 -88.5q-213 0 -314 121l-25 -202q-8 -69 -55 -112.5t-114 -43.5zM478 504
q0 -114 67 -186.5t179 -72.5q136 0 228.5 102t92.5 252q0 117 -68 186.5t-178 69.5q-134 0 -227.5 -102.5t-93.5 -248.5z" />
    <glyph glyph-name="q" unicode="q" horiz-adv-x="1446" 
d="M1010 -267q-67 0 -103 43.5t-28 112.5l25 202q-131 -121 -343 -121q-210 0 -340 134.5t-130 355.5q0 185 80.5 339t221.5 242.5t310 88.5q209 0 314 -133q16 57 60.5 92t102.5 35q66 0 102.5 -43.5t28.5 -112.5l-132 -1079q-8 -69 -55.5 -112.5t-113.5 -43.5zM401 501
q0 -117 68 -186.5t178 -69.5q135 0 228.5 102.5t93.5 249.5q0 114 -67 186t-180 72q-136 0 -228.5 -102t-92.5 -252z" />
    <glyph glyph-name="r" unicode="r" horiz-adv-x="1115" 
d="M491 589l-56 -457q-9 -69 -56.5 -112.5t-112.5 -43.5q-66 0 -102.5 44t-28.5 112l102 836q8 69 56 112.5t114 43.5q57 0 92.5 -33.5t38.5 -89.5q113 129 290 129q125 0 193 -73q59 -62 59 -147q0 -89 -49 -144t-128 -55q-67 0 -111 67q-44 64 -108 64q-68 0 -123 -63.5
t-70 -189.5z" />
    <glyph glyph-name="s" unicode="s" horiz-adv-x="1203" 
d="M535 -30q-135 0 -245 42t-164 113q-48 54 -48 117q0 68 39 106t96 38q35 0 63.5 -14.5t64.5 -49.5q104 -103 239 -103q74 0 115 28t41 80q0 71 -106 93l-161 35q-142 32 -216 105t-74 180q0 174 136 282t354 108q107 0 198 -26t147 -72q80 -66 80 -149q0 -62 -40 -99.5
t-93 -37.5q-34 0 -64.5 16.5t-72.5 52.5q-82 75 -191 75q-63 0 -101.5 -26t-38.5 -71q0 -68 108 -89l173 -38q279 -63 279 -278q0 -188 -142.5 -303t-375.5 -115z" />
    <glyph glyph-name="t" unicode="t" horiz-adv-x="1082" 
d="M559 -30q-154 0 -241 97t-68 256l62 508h-109q-57 0 -91 32.5t-34 83.5q0 65 45.5 109t112.5 44h110l21 174q8 69 55.5 112.5t114.5 43.5q66 0 102 -43.5t28 -112.5l-21 -174h246q56 0 90 -32t34 -84q0 -64 -45.5 -108.5t-111.5 -44.5h-246l-57 -463q-15 -114 79 -114
q45 0 110 47q56 38 107 38q47 0 74.5 -28t27.5 -73q0 -93 -89 -166q-57 -47 -139 -74.5t-167 -27.5z" />
    <glyph glyph-name="u" unicode="u" 
d="M1156 1124q66 0 102.5 -44t28.5 -112l-102 -836q-9 -69 -57 -112.5t-113 -43.5q-58 0 -93.5 34t-37.5 91q-58 -64 -144.5 -97.5t-186.5 -33.5q-205 0 -313 124t-81 346l65 528q8 68 56 112t113 44q66 0 102.5 -45t27.5 -111l-59 -481q-14 -120 37 -182.5t157 -62.5
q109 0 183 69.5t88 185.5h1l57 471q8 69 55.5 112.5t113.5 43.5z" />
    <glyph glyph-name="v" unicode="v" horiz-adv-x="1281" 
d="M569 -30q-91 0 -142 52t-76 142l-212 770q-6 27 -2 56q6 64 55 101.5t110 37.5q100 0 128 -112l182 -699l353 699q55 112 157 112q56 0 94 -32t38 -86q0 -43 -18 -77l-401 -770q-99 -194 -266 -194z" />
    <glyph glyph-name="w" unicode="w" horiz-adv-x="2001" 
d="M488 -30q-186 0 -226 248l-125 708q-3 18 -3 32q0 80 50.5 125.5t123.5 45.5q56 0 91 -31t42 -87l112 -697l298 645q35 78 86 123.5t134 45.5t123 -45t56 -124l140 -646l283 698q20 55 63 86.5t99 31.5q63 0 101 -33.5t38 -88.5q0 -38 -18 -81l-299 -708
q-100 -248 -287 -248q-183 0 -233 248l-113 529l-243 -529q-110 -248 -293 -248z" />
    <glyph glyph-name="x" unicode="x" horiz-adv-x="1266" 
d="M181 -29q-56 0 -95 38t-39 91q0 65 55 120l330 334l-249 326q-29 39 -29 84q0 66 51.5 115.5t117.5 49.5q71 0 125 -76l211 -291l282 291q73 76 143 76q57 0 96 -37.5t39 -91.5q0 -67 -55 -120l-330 -327l249 -333q30 -40 30 -86q0 -64 -52.5 -113.5t-117.5 -49.5
q-73 0 -126 76l-209 297l-283 -297q-72 -76 -144 -76z" />
    <glyph glyph-name="y" unicode="y" horiz-adv-x="1300" 
d="M200 845q-26 75 -26 129q0 67 46.5 111t116.5 44q64 0 96.5 -34t55.5 -113l173 -528l288 520q47 87 89 121t104 34q57 0 94 -32.5t37 -80.5q0 -64 -59 -166l-484 -837q-84 -144 -189 -213t-244 -69q-145 0 -233 77q-53 45 -53 112q0 64 43.5 113t99.5 49q33 0 62 -21
q44 -47 102 -47q79 0 141 83z" />
    <glyph glyph-name="z" unicode="z" horiz-adv-x="1198" 
d="M169 0q-57 0 -91.5 32.5t-34.5 86.5q0 76 86 157l577 556h-442q-56 0 -90 32t-34 84q0 64 45 108t112 44h711q57 0 91 -32.5t34 -85.5q0 -77 -82 -154l-584 -560h469q56 0 90 -32t34 -84q0 -64 -45.5 -108t-111.5 -44h-734z" />
    <glyph glyph-name="ordfeminine" unicode="&#xaa;" horiz-adv-x="1324" 
d="M442 -29q-157 0 -249 76t-92 204q0 143 89 237t257 132l257 59q54 11 79 35t25 66q0 43 -35.5 67.5t-99.5 24.5q-124 0 -252 -101q-93 -64 -144 -64q-50 0 -80 26t-30 69q0 77 73 148q84 86 205.5 133t265.5 47q210 0 313.5 -99t79.5 -288l-53 -429q-6 -53 37 -53
q25 0 50 23q28 24 58 24t49 -24t19 -60q0 -79 -68 -153q-39 -43 -96.5 -69.5t-114.5 -26.5q-149 0 -211 123q-133 -127 -332 -127zM423 305q0 -43 35 -68.5t95 -25.5q76 0 134 45t72 114l17 136q-36 -26 -100 -41l-102 -22q-71 -15 -111 -51t-40 -87z" />
    <glyph glyph-name="ordmasculine" unicode="&#xba;" horiz-adv-x="1378" 
d="M617 -30q-237 0 -381.5 134.5t-144.5 359.5q0 188 86.5 340.5t240 239t342.5 86.5q238 0 382.5 -134.5t144.5 -359.5q0 -188 -87 -340.5t-240.5 -239t-342.5 -86.5zM401 502q0 -116 68.5 -186.5t181.5 -70.5q139 0 232.5 102t93.5 251q0 116 -68.5 186.5t-182.5 70.5
q-138 0 -231.5 -102t-93.5 -251z" />
    <glyph glyph-name="Agrave" unicode="&#xc0;" horiz-adv-x="1559" 
d="M128 -28q-56 0 -94.5 38.5t-38.5 93.5q0 51 37 122l526 994q69 131 145.5 190.5t188.5 59.5t174 -58.5t99 -191.5l283 -994q11 -41 11 -81q0 -74 -53 -123.5t-117 -49.5q-121 0 -146 102l-60 230h-667l-117 -230q-52 -102 -171 -102zM568 604h436l-148 566z" />
    <glyph glyph-name="Aacute" unicode="&#xc1;" horiz-adv-x="1559" 
d="M128 -28q-56 0 -94.5 38.5t-38.5 93.5q0 51 37 122l526 994q69 131 145.5 190.5t188.5 59.5t174 -58.5t99 -191.5l283 -994q11 -41 11 -81q0 -74 -53 -123.5t-117 -49.5q-121 0 -146 102l-60 230h-667l-117 -230q-52 -102 -171 -102zM568 604h436l-148 566z" />
    <glyph glyph-name="Acircumflex" unicode="&#xc2;" horiz-adv-x="1559" 
d="M128 -28q-56 0 -94.5 38.5t-38.5 93.5q0 51 37 122l526 994q69 131 145.5 190.5t188.5 59.5t174 -58.5t99 -191.5l283 -994q11 -41 11 -81q0 -74 -53 -123.5t-117 -49.5q-121 0 -146 102l-60 230h-667l-117 -230q-52 -102 -171 -102zM568 604h436l-148 566z" />
    <glyph glyph-name="Atilde" unicode="&#xc3;" horiz-adv-x="1559" 
d="M128 -28q-56 0 -94.5 38.5t-38.5 93.5q0 51 37 122l526 994q69 131 145.5 190.5t188.5 59.5t174 -58.5t99 -191.5l283 -994q11 -41 11 -81q0 -74 -53 -123.5t-117 -49.5q-121 0 -146 102l-60 230h-667l-117 -230q-52 -102 -171 -102zM568 604h436l-148 566z" />
    <glyph glyph-name="Adieresis" unicode="&#xc4;" horiz-adv-x="1559" 
d="M128 -28q-56 0 -94.5 38.5t-38.5 93.5q0 51 37 122l526 994q69 131 145.5 190.5t188.5 59.5t174 -58.5t99 -191.5l283 -994q11 -41 11 -81q0 -74 -53 -123.5t-117 -49.5q-121 0 -146 102l-60 230h-667l-117 -230q-52 -102 -171 -102zM568 604h436l-148 566z" />
    <glyph glyph-name="Aring" unicode="&#xc5;" horiz-adv-x="1559" 
d="M128 -28q-56 0 -94.5 38.5t-38.5 93.5q0 51 37 122l526 994q69 131 145.5 190.5t188.5 59.5t174 -58.5t99 -191.5l283 -994q11 -41 11 -81q0 -74 -53 -123.5t-117 -49.5q-121 0 -146 102l-60 230h-667l-117 -230q-52 -102 -171 -102zM568 604h436l-148 566z" />
    <glyph glyph-name="AE" unicode="&#xc6;" horiz-adv-x="2979" 
d="M128 -28q-56 0 -94.5 38.5t-38.5 93.5q0 51 37 122l526 994q69 131 145.5 190.5t188.5 59.5t174 -58.5t99 -191.5l283 -994q11 -41 11 -81q0 -74 -53 -123.5t-117 -49.5q-121 0 -146 102l-60 230h-667l-117 -230q-52 -102 -171 -102zM568 604h436l-148 566zM1704 163
l137 1114q9 73 58 118t120 45h749q64 0 103 -37t39 -97q0 -76 -52 -127.5t-128 -51.5h-590l-32 -254h534q60 0 97 -35.5t37 -91.5q0 -70 -49 -118t-120 -48h-535l-32 -267h593q64 0 103 -37t39 -97q0 -76 -52 -127.5t-129 -51.5h-752q-71 0 -108.5 45t-29.5 118z" />
    <glyph glyph-name="Ccedilla" unicode="&#xc7;" horiz-adv-x="1625" 
d="M788 -30q-291 0 -465.5 174.5t-174.5 460.5q0 241 108 439.5t297 312t419 113.5q368 0 537 -229q57 -80 57 -159q0 -73 -51.5 -126t-119.5 -53q-79 0 -133 71q-107 177 -325 177q-127 0 -232.5 -65.5t-166 -180.5t-60.5 -253q0 -162 96.5 -262.5t256.5 -100.5
q214 0 369 178q74 70 153 70q56 0 93 -39t37 -96q0 -44 -27.5 -99t-70.5 -98q-231 -235 -597 -235z" />
    <glyph glyph-name="Egrave" unicode="&#xc8;" horiz-adv-x="1432" 
d="M294 0q-71 0 -108.5 45t-29.5 118l137 1114q9 73 58 118t120 45h749q64 0 103 -37t39 -97q0 -76 -52 -127.5t-128 -51.5h-590l-32 -254h534q60 0 97 -35.5t37 -91.5q0 -70 -49 -118t-120 -48h-535l-32 -267h593q64 0 103 -37t39 -97q0 -76 -52 -127.5t-129 -51.5h-752z
" />
    <glyph glyph-name="Eacute" unicode="&#xc9;" horiz-adv-x="1432" 
d="M294 0q-71 0 -108.5 45t-29.5 118l137 1114q9 73 58 118t120 45h749q64 0 103 -37t39 -97q0 -76 -52 -127.5t-128 -51.5h-590l-32 -254h534q60 0 97 -35.5t37 -91.5q0 -70 -49 -118t-120 -48h-535l-32 -267h593q64 0 103 -37t39 -97q0 -76 -52 -127.5t-129 -51.5h-752z
" />
    <glyph glyph-name="Ecircumflex" unicode="&#xca;" horiz-adv-x="1432" 
d="M294 0q-71 0 -108.5 45t-29.5 118l137 1114q9 73 58 118t120 45h749q64 0 103 -37t39 -97q0 -76 -52 -127.5t-128 -51.5h-590l-32 -254h534q60 0 97 -35.5t37 -91.5q0 -70 -49 -118t-120 -48h-535l-32 -267h593q64 0 103 -37t39 -97q0 -76 -52 -127.5t-129 -51.5h-752z
" />
    <glyph glyph-name="Edieresis" unicode="&#xcb;" horiz-adv-x="1432" 
d="M294 0q-71 0 -108.5 45t-29.5 118l137 1114q9 73 58 118t120 45h749q64 0 103 -37t39 -97q0 -76 -52 -127.5t-128 -51.5h-590l-32 -254h534q60 0 97 -35.5t37 -91.5q0 -70 -49 -118t-120 -48h-535l-32 -267h593q64 0 103 -37t39 -97q0 -76 -52 -127.5t-129 -51.5h-752z
" />
    <glyph glyph-name="Igrave" unicode="&#xcc;" horiz-adv-x="725" 
d="M292 -24q-71 0 -109 45t-29 118l142 1162q9 73 58 118t120 45t109.5 -45t29.5 -118l-143 -1162q-9 -73 -58 -118t-120 -45z" />
    <glyph glyph-name="Iacute" unicode="&#xcd;" horiz-adv-x="725" 
d="M292 -24q-71 0 -109 45t-29 118l142 1162q9 73 58 118t120 45t109.5 -45t29.5 -118l-143 -1162q-9 -73 -58 -118t-120 -45z" />
    <glyph glyph-name="Icircumflex" unicode="&#xce;" horiz-adv-x="725" 
d="M292 -24q-71 0 -109 45t-29 118l142 1162q9 73 58 118t120 45t109.5 -45t29.5 -118l-143 -1162q-9 -73 -58 -118t-120 -45z" />
    <glyph glyph-name="Idieresis" unicode="&#xcf;" horiz-adv-x="725" 
d="M292 -24q-71 0 -109 45t-29 118l142 1162q9 73 58 118t120 45t109.5 -45t29.5 -118l-143 -1162q-9 -73 -58 -118t-120 -45z" />
    <glyph glyph-name="Eth" unicode="&#xd0;" horiz-adv-x="1659" 
d="M295 0q-71 0 -109 45t-30 117l137 1115q9 73 58 118t120 45h463q284 0 451 -167t167 -442q0 -175 -60.5 -329.5t-166 -264.5t-253 -173.5t-315.5 -63.5h-462zM491 309h303q177 0 298 138t121 340q0 153 -86 248.5t-231 95.5h-304z" />
    <glyph glyph-name="Ntilde" unicode="&#xd1;" horiz-adv-x="1665" 
d="M292 -24q-71 0 -109 45.5t-29 117.5l139 1134q11 88 65 139.5t136 51.5q57 0 96 -29.5t87 -108.5l465 -794l94 769q9 72 58 117.5t120 45.5q70 0 109 -45.5t30 -117.5l-140 -1133q-10 -87 -64 -139.5t-132 -52.5q-54 0 -95.5 29t-84.5 99l-475 786l-92 -751
q-9 -72 -58 -117.5t-120 -45.5z" />
    <glyph glyph-name="Ograve" unicode="&#xd2;" horiz-adv-x="1764" 
d="M811 -30q-301 0 -481.5 177t-180.5 464q0 179 65.5 338.5t178 273.5t269.5 180.5t333 66.5q300 0 481 -176.5t181 -463.5q0 -180 -65.5 -339.5t-178 -273.5t-269.5 -180.5t-333 -66.5zM479 657q0 -165 101.5 -266.5t269.5 -101.5q132 0 242 65t173 178.5t63 250.5
q0 165 -102 266.5t-270 101.5q-201 0 -339 -143t-138 -351z" />
    <glyph glyph-name="Oacute" unicode="&#xd3;" horiz-adv-x="1764" 
d="M811 -30q-301 0 -481.5 177t-180.5 464q0 179 65.5 338.5t178 273.5t269.5 180.5t333 66.5q300 0 481 -176.5t181 -463.5q0 -180 -65.5 -339.5t-178 -273.5t-269.5 -180.5t-333 -66.5zM479 657q0 -165 101.5 -266.5t269.5 -101.5q132 0 242 65t173 178.5t63 250.5
q0 165 -102 266.5t-270 101.5q-201 0 -339 -143t-138 -351z" />
    <glyph glyph-name="Ocircumflex" unicode="&#xd4;" horiz-adv-x="1764" 
d="M811 -30q-301 0 -481.5 177t-180.5 464q0 179 65.5 338.5t178 273.5t269.5 180.5t333 66.5q300 0 481 -176.5t181 -463.5q0 -180 -65.5 -339.5t-178 -273.5t-269.5 -180.5t-333 -66.5zM479 657q0 -165 101.5 -266.5t269.5 -101.5q132 0 242 65t173 178.5t63 250.5
q0 165 -102 266.5t-270 101.5q-201 0 -339 -143t-138 -351z" />
    <glyph glyph-name="Otilde" unicode="&#xd5;" horiz-adv-x="1764" 
d="M811 -30q-301 0 -481.5 177t-180.5 464q0 179 65.5 338.5t178 273.5t269.5 180.5t333 66.5q300 0 481 -176.5t181 -463.5q0 -180 -65.5 -339.5t-178 -273.5t-269.5 -180.5t-333 -66.5zM479 657q0 -165 101.5 -266.5t269.5 -101.5q132 0 242 65t173 178.5t63 250.5
q0 165 -102 266.5t-270 101.5q-201 0 -339 -143t-138 -351z" />
    <glyph glyph-name="Odieresis" unicode="&#xd6;" horiz-adv-x="1764" 
d="M811 -30q-301 0 -481.5 177t-180.5 464q0 179 65.5 338.5t178 273.5t269.5 180.5t333 66.5q300 0 481 -176.5t181 -463.5q0 -180 -65.5 -339.5t-178 -273.5t-269.5 -180.5t-333 -66.5zM479 657q0 -165 101.5 -266.5t269.5 -101.5q132 0 242 65t173 178.5t63 250.5
q0 165 -102 266.5t-270 101.5q-201 0 -339 -143t-138 -351z" />
    <glyph glyph-name="Oslash" unicode="&#xd8;" horiz-adv-x="1764" 
d="M811 -30q-301 0 -481.5 177t-180.5 464q0 179 65.5 338.5t178 273.5t269.5 180.5t333 66.5q300 0 481 -176.5t181 -463.5q0 -180 -65.5 -339.5t-178 -273.5t-269.5 -180.5t-333 -66.5zM479 657q0 -165 101.5 -266.5t269.5 -101.5q132 0 242 65t173 178.5t63 250.5
q0 165 -102 266.5t-270 101.5q-201 0 -339 -143t-138 -351z" />
    <glyph glyph-name="Ugrave" unicode="&#xd9;" horiz-adv-x="1587" 
d="M722 -30q-279 0 -426 163.5t-115 433.5l90 734q9 72 59.5 117.5t121.5 45.5t108 -45t28 -118l-86 -704q-17 -138 54 -223t205 -85q135 0 226.5 85t108.5 223l87 704q8 72 57 117.5t119 45.5q71 0 110 -45.5t30 -117.5l-90 -734q-32 -270 -220 -433.5t-467 -163.5z" />
    <glyph glyph-name="Uacute" unicode="&#xda;" horiz-adv-x="1587" 
d="M722 -30q-279 0 -426 163.5t-115 433.5l90 734q9 72 59.5 117.5t121.5 45.5t108 -45t28 -118l-86 -704q-17 -138 54 -223t205 -85q135 0 226.5 85t108.5 223l87 704q8 72 57 117.5t119 45.5q71 0 110 -45.5t30 -117.5l-90 -734q-32 -270 -220 -433.5t-467 -163.5z" />
    <glyph glyph-name="Ucircumflex" unicode="&#xdb;" horiz-adv-x="1587" 
d="M722 -30q-279 0 -426 163.5t-115 433.5l90 734q9 72 59.5 117.5t121.5 45.5t108 -45t28 -118l-86 -704q-17 -138 54 -223t205 -85q135 0 226.5 85t108.5 223l87 704q8 72 57 117.5t119 45.5q71 0 110 -45.5t30 -117.5l-90 -734q-32 -270 -220 -433.5t-467 -163.5z" />
    <glyph glyph-name="Udieresis" unicode="&#xdc;" horiz-adv-x="1587" 
d="M722 -30q-279 0 -426 163.5t-115 433.5l90 734q9 72 59.5 117.5t121.5 45.5t108 -45t28 -118l-86 -704q-17 -138 54 -223t205 -85q135 0 226.5 85t108.5 223l87 704q8 72 57 117.5t119 45.5q71 0 110 -45.5t30 -117.5l-90 -734q-32 -270 -220 -433.5t-467 -163.5z" />
    <glyph glyph-name="Yacute" unicode="&#xdd;" horiz-adv-x="1449" 
d="M196 1245q-18 29 -18 63q0 64 49.5 110t118.5 46q37 0 66 -17.5t43.5 -36.5t34.5 -55l275 -483l392 483q29 36 48 55.5t52 36.5t71 17q59 0 96 -34.5t37 -87.5t-36 -97l-536 -654l-56 -452q-9 -73 -58 -118t-121 -45q-71 0 -109 45t-29 118l55 451z" />
    <glyph glyph-name="Thorn" unicode="&#xde;" horiz-adv-x="1494" 
d="M292 -24q-71 0 -109 45t-29 118l139 1138q9 72 58 117.5t121 45.5h450q222 0 357.5 -113.5t135.5 -304.5q0 -237 -173.5 -392.5t-438.5 -155.5h-292l-41 -335q-9 -72 -58 -117.5t-120 -45.5zM548 775h312q96 0 159 59t63 149q0 71 -48 113.5t-130 42.5h-311z" />
    <glyph glyph-name="agrave" unicode="&#xe0;" horiz-adv-x="1324" 
d="M442 -29q-157 0 -249 76t-92 204q0 143 89 237t257 132l257 59q54 11 79 35t25 66q0 43 -35.5 67.5t-99.5 24.5q-124 0 -252 -101q-93 -64 -144 -64q-50 0 -80 26t-30 69q0 77 73 148q84 86 205.5 133t265.5 47q210 0 313.5 -99t79.5 -288l-53 -429q-6 -53 37 -53
q25 0 50 23q28 24 58 24t49 -24t19 -60q0 -79 -68 -153q-39 -43 -96.5 -69.5t-114.5 -26.5q-149 0 -211 123q-133 -127 -332 -127zM423 305q0 -43 35 -68.5t95 -25.5q76 0 134 45t72 114l17 136q-36 -26 -100 -41l-102 -22q-71 -15 -111 -51t-40 -87z" />
    <glyph glyph-name="aacute" unicode="&#xe1;" horiz-adv-x="1324" 
d="M442 -29q-157 0 -249 76t-92 204q0 143 89 237t257 132l257 59q54 11 79 35t25 66q0 43 -35.5 67.5t-99.5 24.5q-124 0 -252 -101q-93 -64 -144 -64q-50 0 -80 26t-30 69q0 77 73 148q84 86 205.5 133t265.5 47q210 0 313.5 -99t79.5 -288l-53 -429q-6 -53 37 -53
q25 0 50 23q28 24 58 24t49 -24t19 -60q0 -79 -68 -153q-39 -43 -96.5 -69.5t-114.5 -26.5q-149 0 -211 123q-133 -127 -332 -127zM423 305q0 -43 35 -68.5t95 -25.5q76 0 134 45t72 114l17 136q-36 -26 -100 -41l-102 -22q-71 -15 -111 -51t-40 -87z" />
    <glyph glyph-name="acircumflex" unicode="&#xe2;" horiz-adv-x="1324" 
d="M442 -29q-157 0 -249 76t-92 204q0 143 89 237t257 132l257 59q54 11 79 35t25 66q0 43 -35.5 67.5t-99.5 24.5q-124 0 -252 -101q-93 -64 -144 -64q-50 0 -80 26t-30 69q0 77 73 148q84 86 205.5 133t265.5 47q210 0 313.5 -99t79.5 -288l-53 -429q-6 -53 37 -53
q25 0 50 23q28 24 58 24t49 -24t19 -60q0 -79 -68 -153q-39 -43 -96.5 -69.5t-114.5 -26.5q-149 0 -211 123q-133 -127 -332 -127zM423 305q0 -43 35 -68.5t95 -25.5q76 0 134 45t72 114l17 136q-36 -26 -100 -41l-102 -22q-71 -15 -111 -51t-40 -87z" />
    <glyph glyph-name="atilde" unicode="&#xe3;" horiz-adv-x="1324" 
d="M442 -29q-157 0 -249 76t-92 204q0 143 89 237t257 132l257 59q54 11 79 35t25 66q0 43 -35.5 67.5t-99.5 24.5q-124 0 -252 -101q-93 -64 -144 -64q-50 0 -80 26t-30 69q0 77 73 148q84 86 205.5 133t265.5 47q210 0 313.5 -99t79.5 -288l-53 -429q-6 -53 37 -53
q25 0 50 23q28 24 58 24t49 -24t19 -60q0 -79 -68 -153q-39 -43 -96.5 -69.5t-114.5 -26.5q-149 0 -211 123q-133 -127 -332 -127zM423 305q0 -43 35 -68.5t95 -25.5q76 0 134 45t72 114l17 136q-36 -26 -100 -41l-102 -22q-71 -15 -111 -51t-40 -87z" />
    <glyph glyph-name="adieresis" unicode="&#xe4;" horiz-adv-x="1324" 
d="M442 -29q-157 0 -249 76t-92 204q0 143 89 237t257 132l257 59q54 11 79 35t25 66q0 43 -35.5 67.5t-99.5 24.5q-124 0 -252 -101q-93 -64 -144 -64q-50 0 -80 26t-30 69q0 77 73 148q84 86 205.5 133t265.5 47q210 0 313.5 -99t79.5 -288l-53 -429q-6 -53 37 -53
q25 0 50 23q28 24 58 24t49 -24t19 -60q0 -79 -68 -153q-39 -43 -96.5 -69.5t-114.5 -26.5q-149 0 -211 123q-133 -127 -332 -127zM423 305q0 -43 35 -68.5t95 -25.5q76 0 134 45t72 114l17 136q-36 -26 -100 -41l-102 -22q-71 -15 -111 -51t-40 -87z" />
    <glyph glyph-name="aring" unicode="&#xe5;" horiz-adv-x="1324" 
d="M442 -29q-157 0 -249 76t-92 204q0 143 89 237t257 132l257 59q54 11 79 35t25 66q0 43 -35.5 67.5t-99.5 24.5q-124 0 -252 -101q-93 -64 -144 -64q-50 0 -80 26t-30 69q0 77 73 148q84 86 205.5 133t265.5 47q210 0 313.5 -99t79.5 -288l-53 -429q-6 -53 37 -53
q25 0 50 23q28 24 58 24t49 -24t19 -60q0 -79 -68 -153q-39 -43 -96.5 -69.5t-114.5 -26.5q-149 0 -211 123q-133 -127 -332 -127zM423 305q0 -43 35 -68.5t95 -25.5q76 0 134 45t72 114l17 136q-36 -26 -100 -41l-102 -22q-71 -15 -111 -51t-40 -87z" />
    <glyph glyph-name="ae" unicode="&#xe6;" horiz-adv-x="2619" 
d="M442 -29q-157 0 -249 76t-92 204q0 143 89 237t257 132l257 59q54 11 79 35t25 66q0 43 -35.5 67.5t-99.5 24.5q-124 0 -252 -101q-93 -64 -144 -64q-50 0 -80 26t-30 69q0 77 73 148q84 86 205.5 133t265.5 47q210 0 313.5 -99t79.5 -288l-53 -429q-6 -53 37 -53
q25 0 50 23q28 24 58 24t49 -24t19 -60q0 -79 -68 -153q-39 -43 -96.5 -69.5t-114.5 -26.5q-149 0 -211 123q-133 -127 -332 -127zM423 305q0 -43 35 -68.5t95 -25.5q76 0 134 45t72 114l17 136q-36 -26 -100 -41l-102 -22q-71 -15 -111 -51t-40 -87zM1414 460
q0 187 84 340.5t232 241.5t327 88q220 0 350 -120.5t130 -315.5q0 -124 -45 -181.5t-137 -57.5h-647q4 -98 82.5 -154.5t207.5 -56.5q141 0 232 79q75 46 133 46q98 0 98 -94q0 -67 -53 -128q-69 -83 -194.5 -130t-263.5 -47q-248 0 -392 131.5t-144 358.5zM1736 685h508
q-2 98 -62 153.5t-166 55.5t-180.5 -56t-99.5 -153z" />
    <glyph glyph-name="ccedilla" unicode="&#xe7;" horiz-adv-x="1264" 
d="M601 -30q-227 0 -368.5 138t-141.5 360q0 136 51 258.5t138 211t208 140.5t255 52q268 0 390 -144q68 -82 68 -166q0 -70 -41.5 -112t-99.5 -42q-46 0 -77 18.5t-60 58.5q-68 112 -204 112q-133 0 -225.5 -103t-92.5 -249q0 -116 67.5 -187t175.5 -71q142 0 241 123
q34 40 66.5 57t76.5 17q50 0 83.5 -32t33.5 -81q0 -47 -32.5 -103.5t-84.5 -103.5q-75 -70 -187 -111t-240 -41z" />
    <glyph glyph-name="egrave" unicode="&#xe8;" horiz-adv-x="1295" 
d="M626 -30q-248 0 -392 131.5t-144 358.5q0 187 84 340.5t232 241.5t327 88q220 0 350 -120.5t130 -315.5q0 -124 -45 -181.5t-137 -57.5h-647q4 -98 82.5 -154.5t207.5 -56.5q141 0 232 79q75 46 133 46q98 0 98 -94q0 -67 -53 -128q-69 -83 -194.5 -130t-263.5 -47z
M412 685h508q-2 98 -62 153.5t-166 55.5t-180.5 -56t-99.5 -153z" />
    <glyph glyph-name="eacute" unicode="&#xe9;" horiz-adv-x="1295" 
d="M626 -30q-248 0 -392 131.5t-144 358.5q0 187 84 340.5t232 241.5t327 88q220 0 350 -120.5t130 -315.5q0 -124 -45 -181.5t-137 -57.5h-647q4 -98 82.5 -154.5t207.5 -56.5q141 0 232 79q75 46 133 46q98 0 98 -94q0 -67 -53 -128q-69 -83 -194.5 -130t-263.5 -47z
M412 685h508q-2 98 -62 153.5t-166 55.5t-180.5 -56t-99.5 -153z" />
    <glyph glyph-name="ecircumflex" unicode="&#xea;" horiz-adv-x="1295" 
d="M626 -30q-248 0 -392 131.5t-144 358.5q0 187 84 340.5t232 241.5t327 88q220 0 350 -120.5t130 -315.5q0 -124 -45 -181.5t-137 -57.5h-647q4 -98 82.5 -154.5t207.5 -56.5q141 0 232 79q75 46 133 46q98 0 98 -94q0 -67 -53 -128q-69 -83 -194.5 -130t-263.5 -47z
M412 685h508q-2 98 -62 153.5t-166 55.5t-180.5 -56t-99.5 -153z" />
    <glyph glyph-name="edieresis" unicode="&#xeb;" horiz-adv-x="1295" 
d="M626 -30q-248 0 -392 131.5t-144 358.5q0 187 84 340.5t232 241.5t327 88q220 0 350 -120.5t130 -315.5q0 -124 -45 -181.5t-137 -57.5h-647q4 -98 82.5 -154.5t207.5 -56.5q141 0 232 79q75 46 133 46q98 0 98 -94q0 -67 -53 -128q-69 -83 -194.5 -130t-263.5 -47z
M412 685h508q-2 98 -62 153.5t-166 55.5t-180.5 -56t-99.5 -153z" />
    <glyph glyph-name="igrave" unicode="&#xec;" horiz-adv-x="659" 
d="M259 -24q-66 0 -102.5 44t-28.5 112l102 836q8 68 56 112t113 44q66 0 102.5 -43.5t28.5 -112.5l-103 -836q-8 -69 -55.5 -112.5t-112.5 -43.5zM268 1390q0 79 54.5 133t133.5 54q67 0 107 -39.5t40 -101.5q0 -79 -54.5 -133t-133.5 -54q-67 0 -107 39.5t-40 101.5z" />
    <glyph glyph-name="iacute" unicode="&#xed;" horiz-adv-x="659" 
d="M259 -24q-66 0 -102.5 44t-28.5 112l102 836q8 68 56 112t113 44q66 0 102.5 -43.5t28.5 -112.5l-103 -836q-8 -69 -55.5 -112.5t-112.5 -43.5zM268 1390q0 79 54.5 133t133.5 54q67 0 107 -39.5t40 -101.5q0 -79 -54.5 -133t-133.5 -54q-67 0 -107 39.5t-40 101.5z" />
    <glyph glyph-name="icircumflex" unicode="&#xee;" horiz-adv-x="659" 
d="M259 -24q-66 0 -102.5 44t-28.5 112l102 836q8 68 56 112t113 44q66 0 102.5 -43.5t28.5 -112.5l-103 -836q-8 -69 -55.5 -112.5t-112.5 -43.5zM268 1390q0 79 54.5 133t133.5 54q67 0 107 -39.5t40 -101.5q0 -79 -54.5 -133t-133.5 -54q-67 0 -107 39.5t-40 101.5z" />
    <glyph glyph-name="idieresis" unicode="&#xef;" horiz-adv-x="659" 
d="M259 -24q-66 0 -102.5 44t-28.5 112l102 836q8 68 56 112t113 44q66 0 102.5 -43.5t28.5 -112.5l-103 -836q-8 -69 -55.5 -112.5t-112.5 -43.5zM268 1390q0 79 54.5 133t133.5 54q67 0 107 -39.5t40 -101.5q0 -79 -54.5 -133t-133.5 -54q-67 0 -107 39.5t-40 101.5z" />
    <glyph glyph-name="ntilde" unicode="&#xf1;" 
d="M266 -24q-66 0 -102.5 44t-28.5 112l102 836q8 69 56 112.5t114 43.5q57 0 93 -34t38 -91q58 63 144.5 97t186.5 34q205 0 312.5 -124t80.5 -346l-64 -528q-8 -68 -56 -112t-113 -44t-102 44.5t-29 111.5l59 481q15 120 -36 182.5t-158 62.5q-110 0 -183 -70t-87 -185h-1
l-57 -471q-9 -69 -56.5 -112.5t-112.5 -43.5z" />
    <glyph glyph-name="ograve" unicode="&#xf2;" horiz-adv-x="1378" 
d="M617 -30q-237 0 -381.5 134.5t-144.5 359.5q0 188 86.5 340.5t240 239t342.5 86.5q238 0 382.5 -134.5t144.5 -359.5q0 -188 -87 -340.5t-240.5 -239t-342.5 -86.5zM401 502q0 -116 68.5 -186.5t181.5 -70.5q139 0 232.5 102t93.5 251q0 116 -68.5 186.5t-182.5 70.5
q-138 0 -231.5 -102t-93.5 -251z" />
    <glyph glyph-name="oacute" unicode="&#xf3;" horiz-adv-x="1378" 
d="M617 -30q-237 0 -381.5 134.5t-144.5 359.5q0 188 86.5 340.5t240 239t342.5 86.5q238 0 382.5 -134.5t144.5 -359.5q0 -188 -87 -340.5t-240.5 -239t-342.5 -86.5zM401 502q0 -116 68.5 -186.5t181.5 -70.5q139 0 232.5 102t93.5 251q0 116 -68.5 186.5t-182.5 70.5
q-138 0 -231.5 -102t-93.5 -251z" />
    <glyph glyph-name="ocircumflex" unicode="&#xf4;" horiz-adv-x="1378" 
d="M617 -30q-237 0 -381.5 134.5t-144.5 359.5q0 188 86.5 340.5t240 239t342.5 86.5q238 0 382.5 -134.5t144.5 -359.5q0 -188 -87 -340.5t-240.5 -239t-342.5 -86.5zM401 502q0 -116 68.5 -186.5t181.5 -70.5q139 0 232.5 102t93.5 251q0 116 -68.5 186.5t-182.5 70.5
q-138 0 -231.5 -102t-93.5 -251z" />
    <glyph glyph-name="otilde" unicode="&#xf5;" horiz-adv-x="1378" 
d="M617 -30q-237 0 -381.5 134.5t-144.5 359.5q0 188 86.5 340.5t240 239t342.5 86.5q238 0 382.5 -134.5t144.5 -359.5q0 -188 -87 -340.5t-240.5 -239t-342.5 -86.5zM401 502q0 -116 68.5 -186.5t181.5 -70.5q139 0 232.5 102t93.5 251q0 116 -68.5 186.5t-182.5 70.5
q-138 0 -231.5 -102t-93.5 -251z" />
    <glyph glyph-name="odieresis" unicode="&#xf6;" horiz-adv-x="1378" 
d="M617 -30q-237 0 -381.5 134.5t-144.5 359.5q0 188 86.5 340.5t240 239t342.5 86.5q238 0 382.5 -134.5t144.5 -359.5q0 -188 -87 -340.5t-240.5 -239t-342.5 -86.5zM401 502q0 -116 68.5 -186.5t181.5 -70.5q139 0 232.5 102t93.5 251q0 116 -68.5 186.5t-182.5 70.5
q-138 0 -231.5 -102t-93.5 -251z" />
    <glyph glyph-name="oslash" unicode="&#xf8;" horiz-adv-x="1378" 
d="M617 -30q-237 0 -381.5 134.5t-144.5 359.5q0 188 86.5 340.5t240 239t342.5 86.5q238 0 382.5 -134.5t144.5 -359.5q0 -188 -87 -340.5t-240.5 -239t-342.5 -86.5zM401 502q0 -116 68.5 -186.5t181.5 -70.5q139 0 232.5 102t93.5 251q0 116 -68.5 186.5t-182.5 70.5
q-138 0 -231.5 -102t-93.5 -251z" />
    <glyph glyph-name="ugrave" unicode="&#xf9;" 
d="M1156 1124q66 0 102.5 -44t28.5 -112l-102 -836q-9 -69 -57 -112.5t-113 -43.5q-58 0 -93.5 34t-37.5 91q-58 -64 -144.5 -97.5t-186.5 -33.5q-205 0 -313 124t-81 346l65 528q8 68 56 112t113 44q66 0 102.5 -45t27.5 -111l-59 -481q-14 -120 37 -182.5t157 -62.5
q109 0 183 69.5t88 185.5h1l57 471q8 69 55.5 112.5t113.5 43.5z" />
    <glyph glyph-name="uacute" unicode="&#xfa;" 
d="M1156 1124q66 0 102.5 -44t28.5 -112l-102 -836q-9 -69 -57 -112.5t-113 -43.5q-58 0 -93.5 34t-37.5 91q-58 -64 -144.5 -97.5t-186.5 -33.5q-205 0 -313 124t-81 346l65 528q8 68 56 112t113 44q66 0 102.5 -45t27.5 -111l-59 -481q-14 -120 37 -182.5t157 -62.5
q109 0 183 69.5t88 185.5h1l57 471q8 69 55.5 112.5t113.5 43.5z" />
    <glyph glyph-name="ucircumflex" unicode="&#xfb;" 
d="M1156 1124q66 0 102.5 -44t28.5 -112l-102 -836q-9 -69 -57 -112.5t-113 -43.5q-58 0 -93.5 34t-37.5 91q-58 -64 -144.5 -97.5t-186.5 -33.5q-205 0 -313 124t-81 346l65 528q8 68 56 112t113 44q66 0 102.5 -45t27.5 -111l-59 -481q-14 -120 37 -182.5t157 -62.5
q109 0 183 69.5t88 185.5h1l57 471q8 69 55.5 112.5t113.5 43.5z" />
    <glyph glyph-name="udieresis" unicode="&#xfc;" 
d="M1156 1124q66 0 102.5 -44t28.5 -112l-102 -836q-9 -69 -57 -112.5t-113 -43.5q-58 0 -93.5 34t-37.5 91q-58 -64 -144.5 -97.5t-186.5 -33.5q-205 0 -313 124t-81 346l65 528q8 68 56 112t113 44q66 0 102.5 -45t27.5 -111l-59 -481q-14 -120 37 -182.5t157 -62.5
q109 0 183 69.5t88 185.5h1l57 471q8 69 55.5 112.5t113.5 43.5z" />
    <glyph glyph-name="yacute" unicode="&#xfd;" horiz-adv-x="1300" 
d="M200 845q-26 75 -26 129q0 67 46.5 111t116.5 44q64 0 96.5 -34t55.5 -113l173 -528l288 520q47 87 89 121t104 34q57 0 94 -32.5t37 -80.5q0 -64 -59 -166l-484 -837q-84 -144 -189 -213t-244 -69q-145 0 -233 77q-53 45 -53 112q0 64 43.5 113t99.5 49q33 0 62 -21
q44 -47 102 -47q79 0 141 83z" />
    <glyph glyph-name="thorn" unicode="&#xfe;" horiz-adv-x="1446" 
d="M236 -267q-67 0 -103 43.5t-28 112.5l132 1079q8 69 56 112.5t114 43.5q59 0 94 -35t37 -93q137 134 348 134q209 0 339 -134.5t130 -355.5q0 -185 -80.5 -339t-221 -242.5t-309.5 -88.5q-213 0 -314 121l-25 -202q-8 -69 -55 -112.5t-114 -43.5zM478 504
q0 -114 67 -186.5t179 -72.5q136 0 228.5 102t92.5 252q0 117 -68 186.5t-178 69.5q-134 0 -227.5 -102.5t-93.5 -248.5z" />
    <glyph glyph-name="ydieresis" unicode="&#xff;" horiz-adv-x="1300" 
d="M200 845q-26 75 -26 129q0 67 46.5 111t116.5 44q64 0 96.5 -34t55.5 -113l173 -528l288 520q47 87 89 121t104 34q57 0 94 -32.5t37 -80.5q0 -64 -59 -166l-484 -837q-84 -144 -189 -213t-244 -69q-145 0 -233 77q-53 45 -53 112q0 64 43.5 113t99.5 49q33 0 62 -21
q44 -47 102 -47q79 0 141 83z" />
    <glyph glyph-name="Amacron" unicode="&#x100;" horiz-adv-x="1559" 
d="M128 -28q-56 0 -94.5 38.5t-38.5 93.5q0 51 37 122l526 994q69 131 145.5 190.5t188.5 59.5t174 -58.5t99 -191.5l283 -994q11 -41 11 -81q0 -74 -53 -123.5t-117 -49.5q-121 0 -146 102l-60 230h-667l-117 -230q-52 -102 -171 -102zM568 604h436l-148 566z" />
    <glyph glyph-name="amacron" unicode="&#x101;" horiz-adv-x="1324" 
d="M442 -29q-157 0 -249 76t-92 204q0 143 89 237t257 132l257 59q54 11 79 35t25 66q0 43 -35.5 67.5t-99.5 24.5q-124 0 -252 -101q-93 -64 -144 -64q-50 0 -80 26t-30 69q0 77 73 148q84 86 205.5 133t265.5 47q210 0 313.5 -99t79.5 -288l-53 -429q-6 -53 37 -53
q25 0 50 23q28 24 58 24t49 -24t19 -60q0 -79 -68 -153q-39 -43 -96.5 -69.5t-114.5 -26.5q-149 0 -211 123q-133 -127 -332 -127zM423 305q0 -43 35 -68.5t95 -25.5q76 0 134 45t72 114l17 136q-36 -26 -100 -41l-102 -22q-71 -15 -111 -51t-40 -87z" />
    <glyph glyph-name="Abreve" unicode="&#x102;" horiz-adv-x="1559" 
d="M128 -28q-56 0 -94.5 38.5t-38.5 93.5q0 51 37 122l526 994q69 131 145.5 190.5t188.5 59.5t174 -58.5t99 -191.5l283 -994q11 -41 11 -81q0 -74 -53 -123.5t-117 -49.5q-121 0 -146 102l-60 230h-667l-117 -230q-52 -102 -171 -102zM568 604h436l-148 566z" />
    <glyph glyph-name="abreve" unicode="&#x103;" horiz-adv-x="1324" 
d="M442 -29q-157 0 -249 76t-92 204q0 143 89 237t257 132l257 59q54 11 79 35t25 66q0 43 -35.5 67.5t-99.5 24.5q-124 0 -252 -101q-93 -64 -144 -64q-50 0 -80 26t-30 69q0 77 73 148q84 86 205.5 133t265.5 47q210 0 313.5 -99t79.5 -288l-53 -429q-6 -53 37 -53
q25 0 50 23q28 24 58 24t49 -24t19 -60q0 -79 -68 -153q-39 -43 -96.5 -69.5t-114.5 -26.5q-149 0 -211 123q-133 -127 -332 -127zM423 305q0 -43 35 -68.5t95 -25.5q76 0 134 45t72 114l17 136q-36 -26 -100 -41l-102 -22q-71 -15 -111 -51t-40 -87z" />
    <glyph glyph-name="Aogonek" unicode="&#x104;" horiz-adv-x="1559" 
d="M128 -28q-56 0 -94.5 38.5t-38.5 93.5q0 51 37 122l526 994q69 131 145.5 190.5t188.5 59.5t174 -58.5t99 -191.5l283 -994q11 -41 11 -81q0 -74 -53 -123.5t-117 -49.5q-121 0 -146 102l-60 230h-667l-117 -230q-52 -102 -171 -102zM568 604h436l-148 566z" />
    <glyph glyph-name="aogonek" unicode="&#x105;" horiz-adv-x="1324" 
d="M442 -29q-157 0 -249 76t-92 204q0 143 89 237t257 132l257 59q54 11 79 35t25 66q0 43 -35.5 67.5t-99.5 24.5q-124 0 -252 -101q-93 -64 -144 -64q-50 0 -80 26t-30 69q0 77 73 148q84 86 205.5 133t265.5 47q210 0 313.5 -99t79.5 -288l-53 -429q-6 -53 37 -53
q25 0 50 23q28 24 58 24t49 -24t19 -60q0 -79 -68 -153q-39 -43 -96.5 -69.5t-114.5 -26.5q-149 0 -211 123q-133 -127 -332 -127zM423 305q0 -43 35 -68.5t95 -25.5q76 0 134 45t72 114l17 136q-36 -26 -100 -41l-102 -22q-71 -15 -111 -51t-40 -87z" />
    <glyph glyph-name="Cacute" unicode="&#x106;" horiz-adv-x="1625" 
d="M788 -30q-291 0 -465.5 174.5t-174.5 460.5q0 241 108 439.5t297 312t419 113.5q368 0 537 -229q57 -80 57 -159q0 -73 -51.5 -126t-119.5 -53q-79 0 -133 71q-107 177 -325 177q-127 0 -232.5 -65.5t-166 -180.5t-60.5 -253q0 -162 96.5 -262.5t256.5 -100.5
q214 0 369 178q74 70 153 70q56 0 93 -39t37 -96q0 -44 -27.5 -99t-70.5 -98q-231 -235 -597 -235z" />
    <glyph glyph-name="cacute" unicode="&#x107;" horiz-adv-x="1264" 
d="M601 -30q-227 0 -368.5 138t-141.5 360q0 136 51 258.5t138 211t208 140.5t255 52q268 0 390 -144q68 -82 68 -166q0 -70 -41.5 -112t-99.5 -42q-46 0 -77 18.5t-60 58.5q-68 112 -204 112q-133 0 -225.5 -103t-92.5 -249q0 -116 67.5 -187t175.5 -71q142 0 241 123
q34 40 66.5 57t76.5 17q50 0 83.5 -32t33.5 -81q0 -47 -32.5 -103.5t-84.5 -103.5q-75 -70 -187 -111t-240 -41z" />
    <glyph glyph-name="Ccircumflex" unicode="&#x108;" horiz-adv-x="1625" 
d="M788 -30q-291 0 -465.5 174.5t-174.5 460.5q0 241 108 439.5t297 312t419 113.5q368 0 537 -229q57 -80 57 -159q0 -73 -51.5 -126t-119.5 -53q-79 0 -133 71q-107 177 -325 177q-127 0 -232.5 -65.5t-166 -180.5t-60.5 -253q0 -162 96.5 -262.5t256.5 -100.5
q214 0 369 178q74 70 153 70q56 0 93 -39t37 -96q0 -44 -27.5 -99t-70.5 -98q-231 -235 -597 -235z" />
    <glyph glyph-name="ccircumflex" unicode="&#x109;" horiz-adv-x="1264" 
d="M601 -30q-227 0 -368.5 138t-141.5 360q0 136 51 258.5t138 211t208 140.5t255 52q268 0 390 -144q68 -82 68 -166q0 -70 -41.5 -112t-99.5 -42q-46 0 -77 18.5t-60 58.5q-68 112 -204 112q-133 0 -225.5 -103t-92.5 -249q0 -116 67.5 -187t175.5 -71q142 0 241 123
q34 40 66.5 57t76.5 17q50 0 83.5 -32t33.5 -81q0 -47 -32.5 -103.5t-84.5 -103.5q-75 -70 -187 -111t-240 -41z" />
    <glyph glyph-name="Cdotaccent" unicode="&#x10a;" horiz-adv-x="1625" 
d="M788 -30q-291 0 -465.5 174.5t-174.5 460.5q0 241 108 439.5t297 312t419 113.5q368 0 537 -229q57 -80 57 -159q0 -73 -51.5 -126t-119.5 -53q-79 0 -133 71q-107 177 -325 177q-127 0 -232.5 -65.5t-166 -180.5t-60.5 -253q0 -162 96.5 -262.5t256.5 -100.5
q214 0 369 178q74 70 153 70q56 0 93 -39t37 -96q0 -44 -27.5 -99t-70.5 -98q-231 -235 -597 -235z" />
    <glyph glyph-name="cdotaccent" unicode="&#x10b;" horiz-adv-x="1264" 
d="M601 -30q-227 0 -368.5 138t-141.5 360q0 136 51 258.5t138 211t208 140.5t255 52q268 0 390 -144q68 -82 68 -166q0 -70 -41.5 -112t-99.5 -42q-46 0 -77 18.5t-60 58.5q-68 112 -204 112q-133 0 -225.5 -103t-92.5 -249q0 -116 67.5 -187t175.5 -71q142 0 241 123
q34 40 66.5 57t76.5 17q50 0 83.5 -32t33.5 -81q0 -47 -32.5 -103.5t-84.5 -103.5q-75 -70 -187 -111t-240 -41z" />
    <glyph glyph-name="Ccaron" unicode="&#x10c;" horiz-adv-x="1625" 
d="M788 -30q-291 0 -465.5 174.5t-174.5 460.5q0 241 108 439.5t297 312t419 113.5q368 0 537 -229q57 -80 57 -159q0 -73 -51.5 -126t-119.5 -53q-79 0 -133 71q-107 177 -325 177q-127 0 -232.5 -65.5t-166 -180.5t-60.5 -253q0 -162 96.5 -262.5t256.5 -100.5
q214 0 369 178q74 70 153 70q56 0 93 -39t37 -96q0 -44 -27.5 -99t-70.5 -98q-231 -235 -597 -235z" />
    <glyph glyph-name="ccaron" unicode="&#x10d;" horiz-adv-x="1264" 
d="M601 -30q-227 0 -368.5 138t-141.5 360q0 136 51 258.5t138 211t208 140.5t255 52q268 0 390 -144q68 -82 68 -166q0 -70 -41.5 -112t-99.5 -42q-46 0 -77 18.5t-60 58.5q-68 112 -204 112q-133 0 -225.5 -103t-92.5 -249q0 -116 67.5 -187t175.5 -71q142 0 241 123
q34 40 66.5 57t76.5 17q50 0 83.5 -32t33.5 -81q0 -47 -32.5 -103.5t-84.5 -103.5q-75 -70 -187 -111t-240 -41z" />
    <glyph glyph-name="Dcaron" unicode="&#x10e;" horiz-adv-x="1659" 
d="M295 0q-71 0 -109 45t-30 117l137 1115q9 73 58 118t120 45h463q284 0 451 -167t167 -442q0 -175 -60.5 -329.5t-166 -264.5t-253 -173.5t-315.5 -63.5h-462zM491 309h303q177 0 298 138t121 340q0 153 -86 248.5t-231 95.5h-304z" />
    <glyph glyph-name="dcaron" unicode="&#x10f;" horiz-adv-x="1446" 
d="M561 -30q-210 0 -340 134.5t-130 355.5q0 185 80.5 339t221.5 242.5t310 88.5q209 0 313 -130l37 308q8 69 55.5 112.5t113.5 43.5t102.5 -43.5t28.5 -112.5l-144 -1176q-8 -69 -55.5 -112.5t-113.5 -43.5q-57 0 -92.5 32.5t-39.5 86.5q-131 -125 -347 -125zM401 501
q0 -117 68 -186.5t178 -69.5q135 0 228.5 102.5t93.5 249.5q0 114 -67 186t-180 72q-136 0 -228.5 -102t-92.5 -252z" />
    <glyph glyph-name="Dcroat" unicode="&#x110;" horiz-adv-x="1659" 
d="M295 0q-71 0 -109 45t-30 117l137 1115q9 73 58 118t120 45h463q284 0 451 -167t167 -442q0 -175 -60.5 -329.5t-166 -264.5t-253 -173.5t-315.5 -63.5h-462zM491 309h303q177 0 298 138t121 340q0 153 -86 248.5t-231 95.5h-304z" />
    <glyph glyph-name="dcroat" unicode="&#x111;" horiz-adv-x="1446" 
d="M561 -30q-210 0 -340 134.5t-130 355.5q0 185 80.5 339t221.5 242.5t310 88.5q209 0 313 -130l37 308q8 69 55.5 112.5t113.5 43.5t102.5 -43.5t28.5 -112.5l-144 -1176q-8 -69 -55.5 -112.5t-113.5 -43.5q-57 0 -92.5 32.5t-39.5 86.5q-131 -125 -347 -125zM401 501
q0 -117 68 -186.5t178 -69.5q135 0 228.5 102.5t93.5 249.5q0 114 -67 186t-180 72q-136 0 -228.5 -102t-92.5 -252z" />
    <glyph glyph-name="Emacron" unicode="&#x112;" horiz-adv-x="1432" 
d="M294 0q-71 0 -108.5 45t-29.5 118l137 1114q9 73 58 118t120 45h749q64 0 103 -37t39 -97q0 -76 -52 -127.5t-128 -51.5h-590l-32 -254h534q60 0 97 -35.5t37 -91.5q0 -70 -49 -118t-120 -48h-535l-32 -267h593q64 0 103 -37t39 -97q0 -76 -52 -127.5t-129 -51.5h-752z
" />
    <glyph glyph-name="emacron" unicode="&#x113;" horiz-adv-x="1295" 
d="M626 -30q-248 0 -392 131.5t-144 358.5q0 187 84 340.5t232 241.5t327 88q220 0 350 -120.5t130 -315.5q0 -124 -45 -181.5t-137 -57.5h-647q4 -98 82.5 -154.5t207.5 -56.5q141 0 232 79q75 46 133 46q98 0 98 -94q0 -67 -53 -128q-69 -83 -194.5 -130t-263.5 -47z
M412 685h508q-2 98 -62 153.5t-166 55.5t-180.5 -56t-99.5 -153z" />
    <glyph glyph-name="Ebreve" unicode="&#x114;" horiz-adv-x="1432" 
d="M294 0q-71 0 -108.5 45t-29.5 118l137 1114q9 73 58 118t120 45h749q64 0 103 -37t39 -97q0 -76 -52 -127.5t-128 -51.5h-590l-32 -254h534q60 0 97 -35.5t37 -91.5q0 -70 -49 -118t-120 -48h-535l-32 -267h593q64 0 103 -37t39 -97q0 -76 -52 -127.5t-129 -51.5h-752z
" />
    <glyph glyph-name="ebreve" unicode="&#x115;" horiz-adv-x="1295" 
d="M626 -30q-248 0 -392 131.5t-144 358.5q0 187 84 340.5t232 241.5t327 88q220 0 350 -120.5t130 -315.5q0 -124 -45 -181.5t-137 -57.5h-647q4 -98 82.5 -154.5t207.5 -56.5q141 0 232 79q75 46 133 46q98 0 98 -94q0 -67 -53 -128q-69 -83 -194.5 -130t-263.5 -47z
M412 685h508q-2 98 -62 153.5t-166 55.5t-180.5 -56t-99.5 -153z" />
    <glyph glyph-name="Edotaccent" unicode="&#x116;" horiz-adv-x="1432" 
d="M294 0q-71 0 -108.5 45t-29.5 118l137 1114q9 73 58 118t120 45h749q64 0 103 -37t39 -97q0 -76 -52 -127.5t-128 -51.5h-590l-32 -254h534q60 0 97 -35.5t37 -91.5q0 -70 -49 -118t-120 -48h-535l-32 -267h593q64 0 103 -37t39 -97q0 -76 -52 -127.5t-129 -51.5h-752z
" />
    <glyph glyph-name="edotaccent" unicode="&#x117;" horiz-adv-x="1295" 
d="M626 -30q-248 0 -392 131.5t-144 358.5q0 187 84 340.5t232 241.5t327 88q220 0 350 -120.5t130 -315.5q0 -124 -45 -181.5t-137 -57.5h-647q4 -98 82.5 -154.5t207.5 -56.5q141 0 232 79q75 46 133 46q98 0 98 -94q0 -67 -53 -128q-69 -83 -194.5 -130t-263.5 -47z
M412 685h508q-2 98 -62 153.5t-166 55.5t-180.5 -56t-99.5 -153z" />
    <glyph glyph-name="Eogonek" unicode="&#x118;" horiz-adv-x="1432" 
d="M294 0q-71 0 -108.5 45t-29.5 118l137 1114q9 73 58 118t120 45h749q64 0 103 -37t39 -97q0 -76 -52 -127.5t-128 -51.5h-590l-32 -254h534q60 0 97 -35.5t37 -91.5q0 -70 -49 -118t-120 -48h-535l-32 -267h593q64 0 103 -37t39 -97q0 -76 -52 -127.5t-129 -51.5h-752z
" />
    <glyph glyph-name="eogonek" unicode="&#x119;" horiz-adv-x="1295" 
d="M626 -30q-248 0 -392 131.5t-144 358.5q0 187 84 340.5t232 241.5t327 88q220 0 350 -120.5t130 -315.5q0 -124 -45 -181.5t-137 -57.5h-647q4 -98 82.5 -154.5t207.5 -56.5q141 0 232 79q75 46 133 46q98 0 98 -94q0 -67 -53 -128q-69 -83 -194.5 -130t-263.5 -47z
M412 685h508q-2 98 -62 153.5t-166 55.5t-180.5 -56t-99.5 -153z" />
    <glyph glyph-name="Ecaron" unicode="&#x11a;" horiz-adv-x="1432" 
d="M294 0q-71 0 -108.5 45t-29.5 118l137 1114q9 73 58 118t120 45h749q64 0 103 -37t39 -97q0 -76 -52 -127.5t-128 -51.5h-590l-32 -254h534q60 0 97 -35.5t37 -91.5q0 -70 -49 -118t-120 -48h-535l-32 -267h593q64 0 103 -37t39 -97q0 -76 -52 -127.5t-129 -51.5h-752z
" />
    <glyph glyph-name="ecaron" unicode="&#x11b;" horiz-adv-x="1295" 
d="M626 -30q-248 0 -392 131.5t-144 358.5q0 187 84 340.5t232 241.5t327 88q220 0 350 -120.5t130 -315.5q0 -124 -45 -181.5t-137 -57.5h-647q4 -98 82.5 -154.5t207.5 -56.5q141 0 232 79q75 46 133 46q98 0 98 -94q0 -67 -53 -128q-69 -83 -194.5 -130t-263.5 -47z
M412 685h508q-2 98 -62 153.5t-166 55.5t-180.5 -56t-99.5 -153z" />
    <glyph glyph-name="Gcircumflex" unicode="&#x11c;" horiz-adv-x="1697" 
d="M812 -30q-305 0 -484.5 173t-179.5 460q0 180 66.5 341t181 276t274 182.5t338.5 67.5q279 0 460 -140q114 -89 114 -194q0 -81 -49.5 -124t-110.5 -43q-75 0 -142 53q-110 137 -322 137q-202 0 -341.5 -146.5t-139.5 -359.5q0 -167 103 -269.5t280 -102.5
q154 0 250 66.5t122 188.5h-343q-59 0 -98.5 36.5t-39.5 92.5q0 72 50 120t124 48h509q62 0 101.5 -35t39.5 -104q0 -148 -60 -282t-162 -231t-243.5 -154t-297.5 -57z" />
    <glyph glyph-name="gcircumflex" unicode="&#x11d;" horiz-adv-x="1371" 
d="M555 -269q-237 0 -363 61.5t-126 177.5q0 73 45 129t115 87q-58 52 -58 137q0 75 36 128t108 94q-86 78 -86 198q0 173 144 280t379 107q147 0 251 -43l92 70q60 45 120 45q43 0 69.5 -25.5t26.5 -62.5q0 -68 -83 -137l-57 -46q19 -51 19 -104q0 -175 -143.5 -281.5
t-379.5 -106.5q-101 0 -187 22q-31 -23 -31 -55q0 -54 75 -54h345q154 0 236 -60.5t82 -173.5q0 -184 -165 -285.5t-464 -101.5zM367 38q0 -95 229 -95q276 0 276 113q0 62 -102 62h-320q-26 0 -38 1q-45 -34 -45 -81zM529 768q0 -57 44 -90t120 -33q87 0 140.5 44t53.5 117
q0 57 -42 89.5t-117 32.5q-89 0 -144 -44.5t-55 -115.5z" />
    <glyph glyph-name="Gbreve" unicode="&#x11e;" horiz-adv-x="1697" 
d="M812 -30q-305 0 -484.5 173t-179.5 460q0 180 66.5 341t181 276t274 182.5t338.5 67.5q279 0 460 -140q114 -89 114 -194q0 -81 -49.5 -124t-110.5 -43q-75 0 -142 53q-110 137 -322 137q-202 0 -341.5 -146.5t-139.5 -359.5q0 -167 103 -269.5t280 -102.5
q154 0 250 66.5t122 188.5h-343q-59 0 -98.5 36.5t-39.5 92.5q0 72 50 120t124 48h509q62 0 101.5 -35t39.5 -104q0 -148 -60 -282t-162 -231t-243.5 -154t-297.5 -57z" />
    <glyph glyph-name="gbreve" unicode="&#x11f;" horiz-adv-x="1371" 
d="M555 -269q-237 0 -363 61.5t-126 177.5q0 73 45 129t115 87q-58 52 -58 137q0 75 36 128t108 94q-86 78 -86 198q0 173 144 280t379 107q147 0 251 -43l92 70q60 45 120 45q43 0 69.5 -25.5t26.5 -62.5q0 -68 -83 -137l-57 -46q19 -51 19 -104q0 -175 -143.5 -281.5
t-379.5 -106.5q-101 0 -187 22q-31 -23 -31 -55q0 -54 75 -54h345q154 0 236 -60.5t82 -173.5q0 -184 -165 -285.5t-464 -101.5zM367 38q0 -95 229 -95q276 0 276 113q0 62 -102 62h-320q-26 0 -38 1q-45 -34 -45 -81zM529 768q0 -57 44 -90t120 -33q87 0 140.5 44t53.5 117
q0 57 -42 89.5t-117 32.5q-89 0 -144 -44.5t-55 -115.5z" />
    <glyph glyph-name="Gdotaccent" unicode="&#x120;" horiz-adv-x="1697" 
d="M812 -30q-305 0 -484.5 173t-179.5 460q0 180 66.5 341t181 276t274 182.5t338.5 67.5q279 0 460 -140q114 -89 114 -194q0 -81 -49.5 -124t-110.5 -43q-75 0 -142 53q-110 137 -322 137q-202 0 -341.5 -146.5t-139.5 -359.5q0 -167 103 -269.5t280 -102.5
q154 0 250 66.5t122 188.5h-343q-59 0 -98.5 36.5t-39.5 92.5q0 72 50 120t124 48h509q62 0 101.5 -35t39.5 -104q0 -148 -60 -282t-162 -231t-243.5 -154t-297.5 -57z" />
    <glyph glyph-name="gdotaccent" unicode="&#x121;" horiz-adv-x="1371" 
d="M555 -269q-237 0 -363 61.5t-126 177.5q0 73 45 129t115 87q-58 52 -58 137q0 75 36 128t108 94q-86 78 -86 198q0 173 144 280t379 107q147 0 251 -43l92 70q60 45 120 45q43 0 69.5 -25.5t26.5 -62.5q0 -68 -83 -137l-57 -46q19 -51 19 -104q0 -175 -143.5 -281.5
t-379.5 -106.5q-101 0 -187 22q-31 -23 -31 -55q0 -54 75 -54h345q154 0 236 -60.5t82 -173.5q0 -184 -165 -285.5t-464 -101.5zM367 38q0 -95 229 -95q276 0 276 113q0 62 -102 62h-320q-26 0 -38 1q-45 -34 -45 -81zM529 768q0 -57 44 -90t120 -33q87 0 140.5 44t53.5 117
q0 57 -42 89.5t-117 32.5q-89 0 -144 -44.5t-55 -115.5z" />
    <glyph glyph-name="uni0122" unicode="&#x122;" horiz-adv-x="1697" 
d="M812 -30q-305 0 -484.5 173t-179.5 460q0 180 66.5 341t181 276t274 182.5t338.5 67.5q279 0 460 -140q114 -89 114 -194q0 -81 -49.5 -124t-110.5 -43q-75 0 -142 53q-110 137 -322 137q-202 0 -341.5 -146.5t-139.5 -359.5q0 -167 103 -269.5t280 -102.5
q154 0 250 66.5t122 188.5h-343q-59 0 -98.5 36.5t-39.5 92.5q0 72 50 120t124 48h509q62 0 101.5 -35t39.5 -104q0 -148 -60 -282t-162 -231t-243.5 -154t-297.5 -57z" />
    <glyph glyph-name="uni0123" unicode="&#x123;" horiz-adv-x="1371" 
d="M555 -269q-237 0 -363 61.5t-126 177.5q0 73 45 129t115 87q-58 52 -58 137q0 75 36 128t108 94q-86 78 -86 198q0 173 144 280t379 107q147 0 251 -43l92 70q60 45 120 45q43 0 69.5 -25.5t26.5 -62.5q0 -68 -83 -137l-57 -46q19 -51 19 -104q0 -175 -143.5 -281.5
t-379.5 -106.5q-101 0 -187 22q-31 -23 -31 -55q0 -54 75 -54h345q154 0 236 -60.5t82 -173.5q0 -184 -165 -285.5t-464 -101.5zM367 38q0 -95 229 -95q276 0 276 113q0 62 -102 62h-320q-26 0 -38 1q-45 -34 -45 -81zM529 768q0 -57 44 -90t120 -33q87 0 140.5 44t53.5 117
q0 57 -42 89.5t-117 32.5q-89 0 -144 -44.5t-55 -115.5z" />
    <glyph glyph-name="Hcircumflex" unicode="&#x124;" horiz-adv-x="1658" 
d="M1225 -24q-71 0 -109 45t-29 118l53 435h-616l-54 -435q-9 -73 -58 -118t-120 -45t-109 45t-29 118l142 1162q9 73 58 118t120 45t109.5 -45t29.5 -118l-53 -427h617l52 427q9 73 58 118t120 45t109.5 -45t29.5 -118l-143 -1162q-9 -73 -58 -118t-120 -45z" />
    <glyph glyph-name="hcircumflex" unicode="&#x125;" 
d="M266 -21q-66 0 -102.5 43.5t-28.5 111.5l144 1177q8 68 55.5 111.5t114.5 43.5q66 0 102 -43.5t28 -111.5l-38 -310q57 62 143 95.5t185 33.5q205 0 313 -124t81 -346l-65 -528q-8 -68 -56 -112t-113 -44q-66 0 -102.5 44.5t-28.5 111.5l60 481q14 120 -37.5 182.5
t-156.5 62.5q-110 0 -183.5 -70t-87.5 -185h-1l-57 -469q-8 -68 -55.5 -111.5t-113.5 -43.5z" />
    <glyph glyph-name="Hbar" unicode="&#x126;" horiz-adv-x="1658" 
d="M1225 -24q-71 0 -109 45t-29 118l53 435h-616l-54 -435q-9 -73 -58 -118t-120 -45t-109 45t-29 118l142 1162q9 73 58 118t120 45t109.5 -45t29.5 -118l-53 -427h617l52 427q9 73 58 118t120 45t109.5 -45t29.5 -118l-143 -1162q-9 -73 -58 -118t-120 -45z" />
    <glyph glyph-name="hbar" unicode="&#x127;" 
d="M266 -21q-66 0 -102.5 43.5t-28.5 111.5l144 1177q8 68 55.5 111.5t114.5 43.5q66 0 102 -43.5t28 -111.5l-38 -310q57 62 143 95.5t185 33.5q205 0 313 -124t81 -346l-65 -528q-8 -68 -56 -112t-113 -44q-66 0 -102.5 44.5t-28.5 111.5l60 481q14 120 -37.5 182.5
t-156.5 62.5q-110 0 -183.5 -70t-87.5 -185h-1l-57 -469q-8 -68 -55.5 -111.5t-113.5 -43.5z" />
    <glyph glyph-name="Itilde" unicode="&#x128;" horiz-adv-x="725" 
d="M292 -24q-71 0 -109 45t-29 118l142 1162q9 73 58 118t120 45t109.5 -45t29.5 -118l-143 -1162q-9 -73 -58 -118t-120 -45z" />
    <glyph glyph-name="itilde" unicode="&#x129;" horiz-adv-x="659" 
d="M259 -24q-66 0 -102.5 44t-28.5 112l102 836q8 68 56 112t113 44q66 0 102.5 -43.5t28.5 -112.5l-103 -836q-8 -69 -55.5 -112.5t-112.5 -43.5zM268 1390q0 79 54.5 133t133.5 54q67 0 107 -39.5t40 -101.5q0 -79 -54.5 -133t-133.5 -54q-67 0 -107 39.5t-40 101.5z" />
    <glyph glyph-name="Imacron" unicode="&#x12a;" horiz-adv-x="725" 
d="M292 -24q-71 0 -109 45t-29 118l142 1162q9 73 58 118t120 45t109.5 -45t29.5 -118l-143 -1162q-9 -73 -58 -118t-120 -45z" />
    <glyph glyph-name="imacron" unicode="&#x12b;" horiz-adv-x="659" 
d="M259 -24q-66 0 -102.5 44t-28.5 112l102 836q8 68 56 112t113 44q66 0 102.5 -43.5t28.5 -112.5l-103 -836q-8 -69 -55.5 -112.5t-112.5 -43.5zM268 1390q0 79 54.5 133t133.5 54q67 0 107 -39.5t40 -101.5q0 -79 -54.5 -133t-133.5 -54q-67 0 -107 39.5t-40 101.5z" />
    <glyph glyph-name="Ibreve" unicode="&#x12c;" horiz-adv-x="725" 
d="M292 -24q-71 0 -109 45t-29 118l142 1162q9 73 58 118t120 45t109.5 -45t29.5 -118l-143 -1162q-9 -73 -58 -118t-120 -45z" />
    <glyph glyph-name="ibreve" unicode="&#x12d;" horiz-adv-x="659" 
d="M259 -24q-66 0 -102.5 44t-28.5 112l102 836q8 68 56 112t113 44q66 0 102.5 -43.5t28.5 -112.5l-103 -836q-8 -69 -55.5 -112.5t-112.5 -43.5zM268 1390q0 79 54.5 133t133.5 54q67 0 107 -39.5t40 -101.5q0 -79 -54.5 -133t-133.5 -54q-67 0 -107 39.5t-40 101.5z" />
    <glyph glyph-name="Iogonek" unicode="&#x12e;" horiz-adv-x="725" 
d="M292 -24q-71 0 -109 45t-29 118l142 1162q9 73 58 118t120 45t109.5 -45t29.5 -118l-143 -1162q-9 -73 -58 -118t-120 -45z" />
    <glyph glyph-name="iogonek" unicode="&#x12f;" horiz-adv-x="659" 
d="M259 -24q-66 0 -102.5 44t-28.5 112l102 836q8 68 56 112t113 44q66 0 102.5 -43.5t28.5 -112.5l-103 -836q-8 -69 -55.5 -112.5t-112.5 -43.5zM268 1390q0 79 54.5 133t133.5 54q67 0 107 -39.5t40 -101.5q0 -79 -54.5 -133t-133.5 -54q-67 0 -107 39.5t-40 101.5z" />
    <glyph glyph-name="Idotaccent" unicode="&#x130;" horiz-adv-x="725" 
d="M292 -24q-71 0 -109 45t-29 118l142 1162q9 73 58 118t120 45t109.5 -45t29.5 -118l-143 -1162q-9 -73 -58 -118t-120 -45z" />
    <glyph glyph-name="dotlessi" unicode="&#x131;" horiz-adv-x="659" 
d="M259 -24q-66 0 -102.5 44t-28.5 112l102 836q8 68 56 112t113 44q66 0 102.5 -43.5t28.5 -112.5l-103 -836q-8 -69 -55.5 -112.5t-112.5 -43.5zM268 1390q0 79 54.5 133t133.5 54q67 0 107 -39.5t40 -101.5q0 -79 -54.5 -133t-133.5 -54q-67 0 -107 39.5t-40 101.5z" />
    <glyph glyph-name="IJ" unicode="&#x132;" horiz-adv-x="2054" 
d="M292 -24q-71 0 -109 45t-29 118l142 1162q9 73 58 118t120 45t109.5 -45t29.5 -118l-143 -1162q-9 -73 -58 -118t-120 -45zM795 416q0 125 50.5 191t131.5 66q70 0 106 -35.5t36 -98.5q1 -125 45 -187t139 -62q113 0 180 63.5t84 204.5l92 743q9 73 58 118t120 45
q70 0 108.5 -45.5t29.5 -117.5l-90 -735q-19 -154 -75.5 -270t-141 -186.5t-187 -105t-220.5 -34.5q-157 0 -271.5 67.5t-155.5 180.5q-39 101 -39 198z" />
    <glyph glyph-name="ij" unicode="&#x133;" horiz-adv-x="659" 
d="M46 -367q-68 0 -123.5 25t-85.5 68q-19 30 -19 67q0 56 36 101t81 45q15 0 26 -7q29 -18 67 -18q35 0 58 30t30 80l11 86q0 15 1 22l102 836q8 68 56 112t113 44q66 0 102.5 -43.5t28.5 -112.5l-9 -70q1 -9 -1 -27l-109 -886q-20 -162 -118.5 -257t-246.5 -95zM256 1293
q0 38 14 72q-2 16 -2 25q0 79 54.5 133t133.5 54q67 0 107 -39.5t40 -101.5q0 -38 -14 -72q2 -16 2 -25q0 -79 -54.5 -133t-133.5 -54q-67 0 -107 39.5t-40 101.5z" />
    <glyph glyph-name="Jcircumflex" unicode="&#x134;" horiz-adv-x="1328" 
d="M536 -30q-157 0 -271.5 67.5t-155.5 180.5q-39 101 -39 198q0 125 50.5 191t131.5 66q70 0 106 -35.5t36 -98.5q1 -125 45 -187t139 -62q113 0 180 63.5t84 204.5l92 743q9 73 58 118t120 45q70 0 108.5 -45.5t29.5 -117.5l-90 -735q-19 -154 -75.5 -270t-141 -186.5
t-187 -105t-220.5 -34.5z" />
    <glyph glyph-name="jcircumflex" unicode="&#x135;" horiz-adv-x="704" 
d="M104 -270q-68 0 -123.5 25t-85.5 68q-19 30 -19 67q0 56 36 101t81 45q15 0 26 -7q29 -18 67 -18q35 0 58 30t30 80l104 847q8 69 55.5 112.5t113.5 43.5q65 0 102 -43.5t29 -112.5l-109 -886q-20 -162 -118.5 -257t-246.5 -95zM314 1390q0 79 54.5 133t133.5 54
q67 0 107 -39.5t40 -101.5q0 -79 -54.5 -133t-133.5 -54q-67 0 -107 39.5t-40 101.5z" />
    <glyph glyph-name="uni0136" unicode="&#x136;" horiz-adv-x="1562" 
d="M293 -24q-71 0 -109.5 45t-29.5 118l142 1162q9 73 58.5 118t121.5 45q71 0 109 -45t29 -118l-58 -478l711 582q65 52 140 52q46 0 81 -34t35 -78q0 -88 -106 -173l-435 -354l379 -571q52 -79 52 -124q0 -63 -52 -105t-116 -42q-38 0 -77.5 19t-61.5 53l-375 565
l-223 -181l-36 -293q-9 -73 -58.5 -118t-120.5 -45z" />
    <glyph glyph-name="uni0137" unicode="&#x137;" horiz-adv-x="1392" 
d="M1054 -20q-87 0 -132 70l-251 389l-219 -172l-17 -135q-8 -69 -55.5 -112.5t-113.5 -43.5t-102.5 43.5t-28.5 112.5l144 1176q8 69 55.5 112.5t114.5 43.5q66 0 102 -43.5t28 -112.5l-82 -672l519 410q61 49 98.5 65.5t80.5 16.5q53 0 86 -29.5t33 -79.5q0 -79 -92 -151
l-297 -231l249 -390q42 -66 42 -111q0 -67 -47.5 -111.5t-114.5 -44.5z" />
    <glyph glyph-name="kgreenlandic" unicode="&#x138;" horiz-adv-x="1392" 
d="M1054 -20q-87 0 -132 70l-251 389l-219 -172l-17 -135q-8 -69 -55.5 -112.5t-113.5 -43.5t-102.5 43.5t-28.5 112.5l144 1176q8 69 55.5 112.5t114.5 43.5q66 0 102 -43.5t28 -112.5l-82 -672l519 410q61 49 98.5 65.5t80.5 16.5q53 0 86 -29.5t33 -79.5q0 -79 -92 -151
l-297 -231l249 -390q42 -66 42 -111q0 -67 -47.5 -111.5t-114.5 -44.5z" />
    <glyph glyph-name="Lacute" unicode="&#x139;" horiz-adv-x="1299" 
d="M295 0q-70 0 -108.5 45t-30.5 117l140 1139q9 72 58 117.5t120 45.5t109.5 -45.5t29.5 -117.5l-121 -988h549q64 0 103 -37t39 -97q0 -76 -52 -127.5t-128 -51.5h-708z" />
    <glyph glyph-name="lacute" unicode="&#x13a;" horiz-adv-x="672" 
d="M266 -24q-66 0 -102.5 43.5t-28.5 112.5l144 1176q8 69 55.5 112.5t114.5 43.5q66 0 102 -43.5t28 -112.5l-144 -1176q-8 -69 -55.5 -112.5t-113.5 -43.5z" />
    <glyph glyph-name="uni013B" unicode="&#x13b;" horiz-adv-x="1299" 
d="M295 0q-70 0 -108.5 45t-30.5 117l140 1139q9 72 58 117.5t120 45.5t109.5 -45.5t29.5 -117.5l-121 -988h549q64 0 103 -37t39 -97q0 -76 -52 -127.5t-128 -51.5h-708z" />
    <glyph glyph-name="uni013C" unicode="&#x13c;" horiz-adv-x="672" 
d="M266 -24q-66 0 -102.5 43.5t-28.5 112.5l144 1176q8 69 55.5 112.5t114.5 43.5q66 0 102 -43.5t28 -112.5l-144 -1176q-8 -69 -55.5 -112.5t-113.5 -43.5z" />
    <glyph glyph-name="Lcaron" unicode="&#x13d;" horiz-adv-x="1299" 
d="M295 0q-70 0 -108.5 45t-30.5 117l140 1139q9 72 58 117.5t120 45.5t109.5 -45.5t29.5 -117.5l-121 -988h549q64 0 103 -37t39 -97q0 -76 -52 -127.5t-128 -51.5h-708z" />
    <glyph glyph-name="lcaron" unicode="&#x13e;" horiz-adv-x="672" 
d="M266 -24q-66 0 -102.5 43.5t-28.5 112.5l144 1176q8 69 55.5 112.5t114.5 43.5q66 0 102 -43.5t28 -112.5l-144 -1176q-8 -69 -55.5 -112.5t-113.5 -43.5z" />
    <glyph glyph-name="Ldot" unicode="&#x13f;" horiz-adv-x="1299" 
d="M295 0q-70 0 -108.5 45t-30.5 117l140 1139q9 72 58 117.5t120 45.5t109.5 -45.5t29.5 -117.5l-121 -988h549q64 0 103 -37t39 -97q0 -76 -52 -127.5t-128 -51.5h-708z" />
    <glyph glyph-name="ldot" unicode="&#x140;" horiz-adv-x="672" 
d="M266 -24q-66 0 -102.5 43.5t-28.5 112.5l144 1176q8 69 55.5 112.5t114.5 43.5q66 0 102 -43.5t28 -112.5l-144 -1176q-8 -69 -55.5 -112.5t-113.5 -43.5z" />
    <glyph glyph-name="Lslash" unicode="&#x141;" horiz-adv-x="1299" 
d="M295 0q-70 0 -108.5 45t-30.5 117l140 1139q9 72 58 117.5t120 45.5t109.5 -45.5t29.5 -117.5l-121 -988h549q64 0 103 -37t39 -97q0 -76 -52 -127.5t-128 -51.5h-708z" />
    <glyph glyph-name="lslash" unicode="&#x142;" horiz-adv-x="672" 
d="M266 -24q-66 0 -102.5 43.5t-28.5 112.5l144 1176q8 69 55.5 112.5t114.5 43.5q66 0 102 -43.5t28 -112.5l-144 -1176q-8 -69 -55.5 -112.5t-113.5 -43.5z" />
    <glyph glyph-name="Nacute" unicode="&#x143;" horiz-adv-x="1665" 
d="M292 -24q-71 0 -109 45.5t-29 117.5l139 1134q11 88 65 139.5t136 51.5q57 0 96 -29.5t87 -108.5l465 -794l94 769q9 72 58 117.5t120 45.5q70 0 109 -45.5t30 -117.5l-140 -1133q-10 -87 -64 -139.5t-132 -52.5q-54 0 -95.5 29t-84.5 99l-475 786l-92 -751
q-9 -72 -58 -117.5t-120 -45.5z" />
    <glyph glyph-name="nacute" unicode="&#x144;" 
d="M266 -24q-66 0 -102.5 44t-28.5 112l102 836q8 69 56 112.5t114 43.5q57 0 93 -34t38 -91q58 63 144.5 97t186.5 34q205 0 312.5 -124t80.5 -346l-64 -528q-8 -68 -56 -112t-113 -44t-102 44.5t-29 111.5l59 481q15 120 -36 182.5t-158 62.5q-110 0 -183 -70t-87 -185h-1
l-57 -471q-9 -69 -56.5 -112.5t-112.5 -43.5z" />
    <glyph glyph-name="uni0145" unicode="&#x145;" horiz-adv-x="1665" 
d="M292 -24q-71 0 -109 45.5t-29 117.5l139 1134q11 88 65 139.5t136 51.5q57 0 96 -29.5t87 -108.5l465 -794l94 769q9 72 58 117.5t120 45.5q70 0 109 -45.5t30 -117.5l-140 -1133q-10 -87 -64 -139.5t-132 -52.5q-54 0 -95.5 29t-84.5 99l-475 786l-92 -751
q-9 -72 -58 -117.5t-120 -45.5z" />
    <glyph glyph-name="uni0146" unicode="&#x146;" 
d="M266 -24q-66 0 -102.5 44t-28.5 112l102 836q8 69 56 112.5t114 43.5q57 0 93 -34t38 -91q58 63 144.5 97t186.5 34q205 0 312.5 -124t80.5 -346l-64 -528q-8 -68 -56 -112t-113 -44t-102 44.5t-29 111.5l59 481q15 120 -36 182.5t-158 62.5q-110 0 -183 -70t-87 -185h-1
l-57 -471q-9 -69 -56.5 -112.5t-112.5 -43.5z" />
    <glyph glyph-name="Ncaron" unicode="&#x147;" horiz-adv-x="1665" 
d="M292 -24q-71 0 -109 45.5t-29 117.5l139 1134q11 88 65 139.5t136 51.5q57 0 96 -29.5t87 -108.5l465 -794l94 769q9 72 58 117.5t120 45.5q70 0 109 -45.5t30 -117.5l-140 -1133q-10 -87 -64 -139.5t-132 -52.5q-54 0 -95.5 29t-84.5 99l-475 786l-92 -751
q-9 -72 -58 -117.5t-120 -45.5z" />
    <glyph glyph-name="ncaron" unicode="&#x148;" 
d="M266 -24q-66 0 -102.5 44t-28.5 112l102 836q8 69 56 112.5t114 43.5q57 0 93 -34t38 -91q58 63 144.5 97t186.5 34q205 0 312.5 -124t80.5 -346l-64 -528q-8 -68 -56 -112t-113 -44t-102 44.5t-29 111.5l59 481q15 120 -36 182.5t-158 62.5q-110 0 -183 -70t-87 -185h-1
l-57 -471q-9 -69 -56.5 -112.5t-112.5 -43.5z" />
    <glyph glyph-name="napostrophe" unicode="&#x149;" 
d="M266 -24q-66 0 -102.5 44t-28.5 112l102 836q8 69 56 112.5t114 43.5q57 0 93 -34t38 -91q58 63 144.5 97t186.5 34q205 0 312.5 -124t80.5 -346l-64 -528q-8 -68 -56 -112t-113 -44t-102 44.5t-29 111.5l59 481q15 120 -36 182.5t-158 62.5q-110 0 -183 -70t-87 -185h-1
l-57 -471q-9 -69 -56.5 -112.5t-112.5 -43.5z" />
    <glyph glyph-name="Eng" unicode="&#x14a;" horiz-adv-x="1665" 
d="M292 -24q-71 0 -109 45.5t-29 117.5l139 1134q11 88 65 139.5t136 51.5q57 0 96 -29.5t87 -108.5l465 -794l94 769q9 72 58 117.5t120 45.5q70 0 109 -45.5t30 -117.5l-140 -1133q-10 -87 -64 -139.5t-132 -52.5q-54 0 -95.5 29t-84.5 99l-475 786l-92 -751
q-9 -72 -58 -117.5t-120 -45.5z" />
    <glyph glyph-name="eng" unicode="&#x14b;" 
d="M266 -24q-66 0 -102.5 44t-28.5 112l102 836q8 69 56 112.5t114 43.5q57 0 93 -34t38 -91q58 63 144.5 97t186.5 34q205 0 312.5 -124t80.5 -346l-64 -528q-8 -68 -56 -112t-113 -44t-102 44.5t-29 111.5l59 481q15 120 -36 182.5t-158 62.5q-110 0 -183 -70t-87 -185h-1
l-57 -471q-9 -69 -56.5 -112.5t-112.5 -43.5z" />
    <glyph glyph-name="Omacron" unicode="&#x14c;" horiz-adv-x="1764" 
d="M811 -30q-301 0 -481.5 177t-180.5 464q0 179 65.5 338.5t178 273.5t269.5 180.5t333 66.5q300 0 481 -176.5t181 -463.5q0 -180 -65.5 -339.5t-178 -273.5t-269.5 -180.5t-333 -66.5zM479 657q0 -165 101.5 -266.5t269.5 -101.5q132 0 242 65t173 178.5t63 250.5
q0 165 -102 266.5t-270 101.5q-201 0 -339 -143t-138 -351z" />
    <glyph glyph-name="omacron" unicode="&#x14d;" horiz-adv-x="1378" 
d="M617 -30q-237 0 -381.5 134.5t-144.5 359.5q0 188 86.5 340.5t240 239t342.5 86.5q238 0 382.5 -134.5t144.5 -359.5q0 -188 -87 -340.5t-240.5 -239t-342.5 -86.5zM401 502q0 -116 68.5 -186.5t181.5 -70.5q139 0 232.5 102t93.5 251q0 116 -68.5 186.5t-182.5 70.5
q-138 0 -231.5 -102t-93.5 -251z" />
    <glyph glyph-name="Obreve" unicode="&#x14e;" horiz-adv-x="1764" 
d="M811 -30q-301 0 -481.5 177t-180.5 464q0 179 65.5 338.5t178 273.5t269.5 180.5t333 66.5q300 0 481 -176.5t181 -463.5q0 -180 -65.5 -339.5t-178 -273.5t-269.5 -180.5t-333 -66.5zM479 657q0 -165 101.5 -266.5t269.5 -101.5q132 0 242 65t173 178.5t63 250.5
q0 165 -102 266.5t-270 101.5q-201 0 -339 -143t-138 -351z" />
    <glyph glyph-name="obreve" unicode="&#x14f;" horiz-adv-x="1378" 
d="M617 -30q-237 0 -381.5 134.5t-144.5 359.5q0 188 86.5 340.5t240 239t342.5 86.5q238 0 382.5 -134.5t144.5 -359.5q0 -188 -87 -340.5t-240.5 -239t-342.5 -86.5zM401 502q0 -116 68.5 -186.5t181.5 -70.5q139 0 232.5 102t93.5 251q0 116 -68.5 186.5t-182.5 70.5
q-138 0 -231.5 -102t-93.5 -251z" />
    <glyph glyph-name="Ohungarumlaut" unicode="&#x150;" horiz-adv-x="1764" 
d="M811 -30q-301 0 -481.5 177t-180.5 464q0 179 65.5 338.5t178 273.5t269.5 180.5t333 66.5q300 0 481 -176.5t181 -463.5q0 -180 -65.5 -339.5t-178 -273.5t-269.5 -180.5t-333 -66.5zM479 657q0 -165 101.5 -266.5t269.5 -101.5q132 0 242 65t173 178.5t63 250.5
q0 165 -102 266.5t-270 101.5q-201 0 -339 -143t-138 -351z" />
    <glyph glyph-name="ohungarumlaut" unicode="&#x151;" horiz-adv-x="1378" 
d="M617 -30q-237 0 -381.5 134.5t-144.5 359.5q0 188 86.5 340.5t240 239t342.5 86.5q238 0 382.5 -134.5t144.5 -359.5q0 -188 -87 -340.5t-240.5 -239t-342.5 -86.5zM401 502q0 -116 68.5 -186.5t181.5 -70.5q139 0 232.5 102t93.5 251q0 116 -68.5 186.5t-182.5 70.5
q-138 0 -231.5 -102t-93.5 -251z" />
    <glyph glyph-name="OE" unicode="&#x152;" horiz-adv-x="3196" 
d="M811 -30q-301 0 -481.5 177t-180.5 464q0 179 65.5 338.5t178 273.5t269.5 180.5t333 66.5q300 0 481 -176.5t181 -463.5q0 -180 -65.5 -339.5t-178 -273.5t-269.5 -180.5t-333 -66.5zM479 657q0 -165 101.5 -266.5t269.5 -101.5q132 0 242 65t173 178.5t63 250.5
q0 165 -102 266.5t-270 101.5q-201 0 -339 -143t-138 -351zM1920 163l137 1114q9 73 58 118t120 45h749q64 0 103 -37t39 -97q0 -76 -52 -127.5t-128 -51.5h-590l-32 -254h534q60 0 97 -35.5t37 -91.5q0 -70 -49 -118t-120 -48h-535l-32 -267h593q64 0 103 -37t39 -97
q0 -76 -52 -127.5t-129 -51.5h-752q-71 0 -108.5 45t-29.5 118z" />
    <glyph glyph-name="oe" unicode="&#x153;" horiz-adv-x="2673" 
d="M617 -30q-237 0 -381.5 134.5t-144.5 359.5q0 188 86.5 340.5t240 239t342.5 86.5q238 0 382.5 -134.5t144.5 -359.5q0 -188 -87 -340.5t-240.5 -239t-342.5 -86.5zM401 502q0 -116 68.5 -186.5t181.5 -70.5q139 0 232.5 102t93.5 251q0 116 -68.5 186.5t-182.5 70.5
q-138 0 -231.5 -102t-93.5 -251zM1468 460q0 187 84 340.5t232 241.5t327 88q220 0 350 -120.5t130 -315.5q0 -124 -45 -181.5t-137 -57.5h-647q4 -98 82.5 -154.5t207.5 -56.5q141 0 232 79q75 46 133 46q98 0 98 -94q0 -67 -53 -128q-69 -83 -194.5 -130t-263.5 -47
q-248 0 -392 131.5t-144 358.5zM1790 685h508q-2 98 -62 153.5t-166 55.5t-180.5 -56t-99.5 -153z" />
    <glyph glyph-name="Racute" unicode="&#x154;" horiz-adv-x="1530" 
d="M292 -24q-71 0 -109 45t-29 118l139 1138q9 72 58 117.5t121 45.5h464q214 0 346.5 -114t132.5 -300q0 -155 -82 -280t-222 -193l179 -319q29 -51 29 -101q0 -67 -53 -111.5t-118 -44.5q-84 0 -122 69l-243 442h-270l-43 -349q-9 -72 -58 -117.5t-120 -45.5zM550 788h318
q93 0 153.5 57t60.5 144q0 68 -47 109t-124 41h-318z" />
    <glyph glyph-name="racute" unicode="&#x155;" horiz-adv-x="1115" 
d="M491 589l-56 -457q-9 -69 -56.5 -112.5t-112.5 -43.5q-66 0 -102.5 44t-28.5 112l102 836q8 69 56 112.5t114 43.5q57 0 92.5 -33.5t38.5 -89.5q113 129 290 129q125 0 193 -73q59 -62 59 -147q0 -89 -49 -144t-128 -55q-67 0 -111 67q-44 64 -108 64q-68 0 -123 -63.5
t-70 -189.5z" />
    <glyph glyph-name="uni0156" unicode="&#x156;" horiz-adv-x="1530" 
d="M292 -24q-71 0 -109 45t-29 118l139 1138q9 72 58 117.5t121 45.5h464q214 0 346.5 -114t132.5 -300q0 -155 -82 -280t-222 -193l179 -319q29 -51 29 -101q0 -67 -53 -111.5t-118 -44.5q-84 0 -122 69l-243 442h-270l-43 -349q-9 -72 -58 -117.5t-120 -45.5zM550 788h318
q93 0 153.5 57t60.5 144q0 68 -47 109t-124 41h-318z" />
    <glyph glyph-name="uni0157" unicode="&#x157;" horiz-adv-x="1115" 
d="M491 589l-56 -457q-9 -69 -56.5 -112.5t-112.5 -43.5q-66 0 -102.5 44t-28.5 112l102 836q8 69 56 112.5t114 43.5q57 0 92.5 -33.5t38.5 -89.5q113 129 290 129q125 0 193 -73q59 -62 59 -147q0 -89 -49 -144t-128 -55q-67 0 -111 67q-44 64 -108 64q-68 0 -123 -63.5
t-70 -189.5z" />
    <glyph glyph-name="Rcaron" unicode="&#x158;" horiz-adv-x="1530" 
d="M292 -24q-71 0 -109 45t-29 118l139 1138q9 72 58 117.5t121 45.5h464q214 0 346.5 -114t132.5 -300q0 -155 -82 -280t-222 -193l179 -319q29 -51 29 -101q0 -67 -53 -111.5t-118 -44.5q-84 0 -122 69l-243 442h-270l-43 -349q-9 -72 -58 -117.5t-120 -45.5zM550 788h318
q93 0 153.5 57t60.5 144q0 68 -47 109t-124 41h-318z" />
    <glyph glyph-name="rcaron" unicode="&#x159;" horiz-adv-x="1115" 
d="M491 589l-56 -457q-9 -69 -56.5 -112.5t-112.5 -43.5q-66 0 -102.5 44t-28.5 112l102 836q8 69 56 112.5t114 43.5q57 0 92.5 -33.5t38.5 -89.5q113 129 290 129q125 0 193 -73q59 -62 59 -147q0 -89 -49 -144t-128 -55q-67 0 -111 67q-44 64 -108 64q-68 0 -123 -63.5
t-70 -189.5z" />
    <glyph glyph-name="Sacute" unicode="&#x15a;" horiz-adv-x="1461" 
d="M673 -30q-292 0 -470 142q-50 40 -78 92.5t-28 105.5q0 74 50.5 125.5t117.5 51.5q60 0 104 -46q73 -86 160.5 -130t204.5 -44q109 0 171.5 43t62.5 117q0 48 -34 76t-99 41l-269 57q-169 35 -256 119t-87 228q0 232 172.5 377t448.5 145q243 0 427 -131q51 -36 79 -86.5
t28 -104.5q0 -79 -45.5 -129.5t-112.5 -50.5q-68 0 -140 61q-114 145 -304 145q-91 0 -151.5 -38t-60.5 -113q0 -50 36 -74t116 -43l256 -60q160 -38 246.5 -116t86.5 -225q0 -239 -175 -387t-457 -148z" />
    <glyph glyph-name="sacute" unicode="&#x15b;" horiz-adv-x="1203" 
d="M535 -30q-135 0 -245 42t-164 113q-48 54 -48 117q0 68 39 106t96 38q35 0 63.5 -14.5t64.5 -49.5q104 -103 239 -103q74 0 115 28t41 80q0 71 -106 93l-161 35q-142 32 -216 105t-74 180q0 174 136 282t354 108q107 0 198 -26t147 -72q80 -66 80 -149q0 -62 -40 -99.5
t-93 -37.5q-34 0 -64.5 16.5t-72.5 52.5q-82 75 -191 75q-63 0 -101.5 -26t-38.5 -71q0 -68 108 -89l173 -38q279 -63 279 -278q0 -188 -142.5 -303t-375.5 -115z" />
    <glyph glyph-name="Scircumflex" unicode="&#x15c;" horiz-adv-x="1461" 
d="M673 -30q-292 0 -470 142q-50 40 -78 92.5t-28 105.5q0 74 50.5 125.5t117.5 51.5q60 0 104 -46q73 -86 160.5 -130t204.5 -44q109 0 171.5 43t62.5 117q0 48 -34 76t-99 41l-269 57q-169 35 -256 119t-87 228q0 232 172.5 377t448.5 145q243 0 427 -131q51 -36 79 -86.5
t28 -104.5q0 -79 -45.5 -129.5t-112.5 -50.5q-68 0 -140 61q-114 145 -304 145q-91 0 -151.5 -38t-60.5 -113q0 -50 36 -74t116 -43l256 -60q160 -38 246.5 -116t86.5 -225q0 -239 -175 -387t-457 -148z" />
    <glyph glyph-name="scircumflex" unicode="&#x15d;" horiz-adv-x="1203" 
d="M535 -30q-135 0 -245 42t-164 113q-48 54 -48 117q0 68 39 106t96 38q35 0 63.5 -14.5t64.5 -49.5q104 -103 239 -103q74 0 115 28t41 80q0 71 -106 93l-161 35q-142 32 -216 105t-74 180q0 174 136 282t354 108q107 0 198 -26t147 -72q80 -66 80 -149q0 -62 -40 -99.5
t-93 -37.5q-34 0 -64.5 16.5t-72.5 52.5q-82 75 -191 75q-63 0 -101.5 -26t-38.5 -71q0 -68 108 -89l173 -38q279 -63 279 -278q0 -188 -142.5 -303t-375.5 -115z" />
    <glyph glyph-name="Scedilla" unicode="&#x15e;" horiz-adv-x="1461" 
d="M673 -30q-292 0 -470 142q-50 40 -78 92.5t-28 105.5q0 74 50.5 125.5t117.5 51.5q60 0 104 -46q73 -86 160.5 -130t204.5 -44q109 0 171.5 43t62.5 117q0 48 -34 76t-99 41l-269 57q-169 35 -256 119t-87 228q0 232 172.5 377t448.5 145q243 0 427 -131q51 -36 79 -86.5
t28 -104.5q0 -79 -45.5 -129.5t-112.5 -50.5q-68 0 -140 61q-114 145 -304 145q-91 0 -151.5 -38t-60.5 -113q0 -50 36 -74t116 -43l256 -60q160 -38 246.5 -116t86.5 -225q0 -239 -175 -387t-457 -148z" />
    <glyph glyph-name="scedilla" unicode="&#x15f;" horiz-adv-x="1203" 
d="M535 -30q-135 0 -245 42t-164 113q-48 54 -48 117q0 68 39 106t96 38q35 0 63.5 -14.5t64.5 -49.5q104 -103 239 -103q74 0 115 28t41 80q0 71 -106 93l-161 35q-142 32 -216 105t-74 180q0 174 136 282t354 108q107 0 198 -26t147 -72q80 -66 80 -149q0 -62 -40 -99.5
t-93 -37.5q-34 0 -64.5 16.5t-72.5 52.5q-82 75 -191 75q-63 0 -101.5 -26t-38.5 -71q0 -68 108 -89l173 -38q279 -63 279 -278q0 -188 -142.5 -303t-375.5 -115z" />
    <glyph glyph-name="Scaron" unicode="&#x160;" horiz-adv-x="1461" 
d="M673 -30q-292 0 -470 142q-50 40 -78 92.5t-28 105.5q0 74 50.5 125.5t117.5 51.5q60 0 104 -46q73 -86 160.5 -130t204.5 -44q109 0 171.5 43t62.5 117q0 48 -34 76t-99 41l-269 57q-169 35 -256 119t-87 228q0 232 172.5 377t448.5 145q243 0 427 -131q51 -36 79 -86.5
t28 -104.5q0 -79 -45.5 -129.5t-112.5 -50.5q-68 0 -140 61q-114 145 -304 145q-91 0 -151.5 -38t-60.5 -113q0 -50 36 -74t116 -43l256 -60q160 -38 246.5 -116t86.5 -225q0 -239 -175 -387t-457 -148z" />
    <glyph glyph-name="scaron" unicode="&#x161;" horiz-adv-x="1203" 
d="M535 -30q-135 0 -245 42t-164 113q-48 54 -48 117q0 68 39 106t96 38q35 0 63.5 -14.5t64.5 -49.5q104 -103 239 -103q74 0 115 28t41 80q0 71 -106 93l-161 35q-142 32 -216 105t-74 180q0 174 136 282t354 108q107 0 198 -26t147 -72q80 -66 80 -149q0 -62 -40 -99.5
t-93 -37.5q-34 0 -64.5 16.5t-72.5 52.5q-82 75 -191 75q-63 0 -101.5 -26t-38.5 -71q0 -68 108 -89l173 -38q279 -63 279 -278q0 -188 -142.5 -303t-375.5 -115z" />
    <glyph glyph-name="uni0162" unicode="&#x162;" horiz-adv-x="1400" 
d="M630 -24q-71 0 -109.5 45t-29.5 118l121 988h-312q-63 0 -102 37t-39 97q0 76 52 127.5t128 51.5h941q63 0 102 -37t39 -97q0 -76 -52 -127.5t-127 -51.5h-313l-121 -988q-9 -73 -58 -118t-120 -45z" />
    <glyph glyph-name="uni0163" unicode="&#x163;" horiz-adv-x="1082" 
d="M559 -30q-154 0 -241 97t-68 256l62 508h-109q-57 0 -91 32.5t-34 83.5q0 65 45.5 109t112.5 44h110l21 174q8 69 55.5 112.5t114.5 43.5q66 0 102 -43.5t28 -112.5l-21 -174h246q56 0 90 -32t34 -84q0 -64 -45.5 -108.5t-111.5 -44.5h-246l-57 -463q-15 -114 79 -114
q45 0 110 47q56 38 107 38q47 0 74.5 -28t27.5 -73q0 -93 -89 -166q-57 -47 -139 -74.5t-167 -27.5z" />
    <glyph glyph-name="Tcaron" unicode="&#x164;" horiz-adv-x="1400" 
d="M630 -24q-71 0 -109.5 45t-29.5 118l121 988h-312q-63 0 -102 37t-39 97q0 76 52 127.5t128 51.5h941q63 0 102 -37t39 -97q0 -76 -52 -127.5t-127 -51.5h-313l-121 -988q-9 -73 -58 -118t-120 -45z" />
    <glyph glyph-name="tcaron" unicode="&#x165;" horiz-adv-x="1082" 
d="M559 -30q-154 0 -241 97t-68 256l62 508h-109q-57 0 -91 32.5t-34 83.5q0 65 45.5 109t112.5 44h110l21 174q8 69 55.5 112.5t114.5 43.5q66 0 102 -43.5t28 -112.5l-21 -174h246q56 0 90 -32t34 -84q0 -64 -45.5 -108.5t-111.5 -44.5h-246l-57 -463q-15 -114 79 -114
q45 0 110 47q56 38 107 38q47 0 74.5 -28t27.5 -73q0 -93 -89 -166q-57 -47 -139 -74.5t-167 -27.5z" />
    <glyph glyph-name="Tbar" unicode="&#x166;" horiz-adv-x="1400" 
d="M630 -24q-71 0 -109.5 45t-29.5 118l121 988h-312q-63 0 -102 37t-39 97q0 76 52 127.5t128 51.5h941q63 0 102 -37t39 -97q0 -76 -52 -127.5t-127 -51.5h-313l-121 -988q-9 -73 -58 -118t-120 -45z" />
    <glyph glyph-name="tbar" unicode="&#x167;" horiz-adv-x="1082" 
d="M559 -30q-154 0 -241 97t-68 256l62 508h-109q-57 0 -91 32.5t-34 83.5q0 65 45.5 109t112.5 44h110l21 174q8 69 55.5 112.5t114.5 43.5q66 0 102 -43.5t28 -112.5l-21 -174h246q56 0 90 -32t34 -84q0 -64 -45.5 -108.5t-111.5 -44.5h-246l-57 -463q-15 -114 79 -114
q45 0 110 47q56 38 107 38q47 0 74.5 -28t27.5 -73q0 -93 -89 -166q-57 -47 -139 -74.5t-167 -27.5z" />
    <glyph glyph-name="Utilde" unicode="&#x168;" horiz-adv-x="1587" 
d="M722 -30q-279 0 -426 163.5t-115 433.5l90 734q9 72 59.5 117.5t121.5 45.5t108 -45t28 -118l-86 -704q-17 -138 54 -223t205 -85q135 0 226.5 85t108.5 223l87 704q8 72 57 117.5t119 45.5q71 0 110 -45.5t30 -117.5l-90 -734q-32 -270 -220 -433.5t-467 -163.5z" />
    <glyph glyph-name="utilde" unicode="&#x169;" 
d="M1156 1124q66 0 102.5 -44t28.5 -112l-102 -836q-9 -69 -57 -112.5t-113 -43.5q-58 0 -93.5 34t-37.5 91q-58 -64 -144.5 -97.5t-186.5 -33.5q-205 0 -313 124t-81 346l65 528q8 68 56 112t113 44q66 0 102.5 -45t27.5 -111l-59 -481q-14 -120 37 -182.5t157 -62.5
q109 0 183 69.5t88 185.5h1l57 471q8 69 55.5 112.5t113.5 43.5z" />
    <glyph glyph-name="Umacron" unicode="&#x16a;" horiz-adv-x="1587" 
d="M722 -30q-279 0 -426 163.5t-115 433.5l90 734q9 72 59.5 117.5t121.5 45.5t108 -45t28 -118l-86 -704q-17 -138 54 -223t205 -85q135 0 226.5 85t108.5 223l87 704q8 72 57 117.5t119 45.5q71 0 110 -45.5t30 -117.5l-90 -734q-32 -270 -220 -433.5t-467 -163.5z" />
    <glyph glyph-name="umacron" unicode="&#x16b;" 
d="M1156 1124q66 0 102.5 -44t28.5 -112l-102 -836q-9 -69 -57 -112.5t-113 -43.5q-58 0 -93.5 34t-37.5 91q-58 -64 -144.5 -97.5t-186.5 -33.5q-205 0 -313 124t-81 346l65 528q8 68 56 112t113 44q66 0 102.5 -45t27.5 -111l-59 -481q-14 -120 37 -182.5t157 -62.5
q109 0 183 69.5t88 185.5h1l57 471q8 69 55.5 112.5t113.5 43.5z" />
    <glyph glyph-name="Ubreve" unicode="&#x16c;" horiz-adv-x="1587" 
d="M722 -30q-279 0 -426 163.5t-115 433.5l90 734q9 72 59.5 117.5t121.5 45.5t108 -45t28 -118l-86 -704q-17 -138 54 -223t205 -85q135 0 226.5 85t108.5 223l87 704q8 72 57 117.5t119 45.5q71 0 110 -45.5t30 -117.5l-90 -734q-32 -270 -220 -433.5t-467 -163.5z" />
    <glyph glyph-name="ubreve" unicode="&#x16d;" 
d="M1156 1124q66 0 102.5 -44t28.5 -112l-102 -836q-9 -69 -57 -112.5t-113 -43.5q-58 0 -93.5 34t-37.5 91q-58 -64 -144.5 -97.5t-186.5 -33.5q-205 0 -313 124t-81 346l65 528q8 68 56 112t113 44q66 0 102.5 -45t27.5 -111l-59 -481q-14 -120 37 -182.5t157 -62.5
q109 0 183 69.5t88 185.5h1l57 471q8 69 55.5 112.5t113.5 43.5z" />
    <glyph glyph-name="Uring" unicode="&#x16e;" horiz-adv-x="1587" 
d="M722 -30q-279 0 -426 163.5t-115 433.5l90 734q9 72 59.5 117.5t121.5 45.5t108 -45t28 -118l-86 -704q-17 -138 54 -223t205 -85q135 0 226.5 85t108.5 223l87 704q8 72 57 117.5t119 45.5q71 0 110 -45.5t30 -117.5l-90 -734q-32 -270 -220 -433.5t-467 -163.5z" />
    <glyph glyph-name="uring" unicode="&#x16f;" 
d="M1156 1124q66 0 102.5 -44t28.5 -112l-102 -836q-9 -69 -57 -112.5t-113 -43.5q-58 0 -93.5 34t-37.5 91q-58 -64 -144.5 -97.5t-186.5 -33.5q-205 0 -313 124t-81 346l65 528q8 68 56 112t113 44q66 0 102.5 -45t27.5 -111l-59 -481q-14 -120 37 -182.5t157 -62.5
q109 0 183 69.5t88 185.5h1l57 471q8 69 55.5 112.5t113.5 43.5z" />
    <glyph glyph-name="Uhungarumlaut" unicode="&#x170;" horiz-adv-x="1587" 
d="M722 -30q-279 0 -426 163.5t-115 433.5l90 734q9 72 59.5 117.5t121.5 45.5t108 -45t28 -118l-86 -704q-17 -138 54 -223t205 -85q135 0 226.5 85t108.5 223l87 704q8 72 57 117.5t119 45.5q71 0 110 -45.5t30 -117.5l-90 -734q-32 -270 -220 -433.5t-467 -163.5z" />
    <glyph glyph-name="uhungarumlaut" unicode="&#x171;" 
d="M1156 1124q66 0 102.5 -44t28.5 -112l-102 -836q-9 -69 -57 -112.5t-113 -43.5q-58 0 -93.5 34t-37.5 91q-58 -64 -144.5 -97.5t-186.5 -33.5q-205 0 -313 124t-81 346l65 528q8 68 56 112t113 44q66 0 102.5 -45t27.5 -111l-59 -481q-14 -120 37 -182.5t157 -62.5
q109 0 183 69.5t88 185.5h1l57 471q8 69 55.5 112.5t113.5 43.5z" />
    <glyph glyph-name="Uogonek" unicode="&#x172;" horiz-adv-x="1587" 
d="M722 -30q-279 0 -426 163.5t-115 433.5l90 734q9 72 59.5 117.5t121.5 45.5t108 -45t28 -118l-86 -704q-17 -138 54 -223t205 -85q135 0 226.5 85t108.5 223l87 704q8 72 57 117.5t119 45.5q71 0 110 -45.5t30 -117.5l-90 -734q-32 -270 -220 -433.5t-467 -163.5z" />
    <glyph glyph-name="uogonek" unicode="&#x173;" 
d="M1156 1124q66 0 102.5 -44t28.5 -112l-102 -836q-9 -69 -57 -112.5t-113 -43.5q-58 0 -93.5 34t-37.5 91q-58 -64 -144.5 -97.5t-186.5 -33.5q-205 0 -313 124t-81 346l65 528q8 68 56 112t113 44q66 0 102.5 -45t27.5 -111l-59 -481q-14 -120 37 -182.5t157 -62.5
q109 0 183 69.5t88 185.5h1l57 471q8 69 55.5 112.5t113.5 43.5z" />
    <glyph glyph-name="Wcircumflex" unicode="&#x174;" horiz-adv-x="2247" 
d="M553 -26q-108 0 -176.5 79.5t-81.5 211.5l-113 973q-2 31 2 60q7 71 62 118.5t127 47.5q60 0 99.5 -35.5t43.5 -93.5l90 -999l357 902q38 100 109.5 163t162.5 63q90 0 146.5 -62t70.5 -164l136 -904l336 1001q18 59 65.5 94t109.5 35q65 0 107.5 -40.5t42.5 -101.5
q0 -40 -16 -84l-351 -972q-46 -133 -133.5 -212.5t-196.5 -79.5q-110 0 -176.5 82.5t-83.5 227.5l-106 772l-297 -772q-52 -145 -139 -227.5t-197 -82.5z" />
    <glyph glyph-name="wcircumflex" unicode="&#x175;" horiz-adv-x="2001" 
d="M488 -30q-186 0 -226 248l-125 708q-3 18 -3 32q0 80 50.5 125.5t123.5 45.5q56 0 91 -31t42 -87l112 -697l298 645q35 78 86 123.5t134 45.5t123 -45t56 -124l140 -646l283 698q20 55 63 86.5t99 31.5q63 0 101 -33.5t38 -88.5q0 -38 -18 -81l-299 -708
q-100 -248 -287 -248q-183 0 -233 248l-113 529l-243 -529q-110 -248 -293 -248z" />
    <glyph glyph-name="Ycircumflex" unicode="&#x176;" horiz-adv-x="1449" 
d="M196 1245q-18 29 -18 63q0 64 49.5 110t118.5 46q37 0 66 -17.5t43.5 -36.5t34.5 -55l275 -483l392 483q29 36 48 55.5t52 36.5t71 17q59 0 96 -34.5t37 -87.5t-36 -97l-536 -654l-56 -452q-9 -73 -58 -118t-121 -45q-71 0 -109 45t-29 118l55 451z" />
    <glyph glyph-name="ycircumflex" unicode="&#x177;" horiz-adv-x="1300" 
d="M200 845q-26 75 -26 129q0 67 46.5 111t116.5 44q64 0 96.5 -34t55.5 -113l173 -528l288 520q47 87 89 121t104 34q57 0 94 -32.5t37 -80.5q0 -64 -59 -166l-484 -837q-84 -144 -189 -213t-244 -69q-145 0 -233 77q-53 45 -53 112q0 64 43.5 113t99.5 49q33 0 62 -21
q44 -47 102 -47q79 0 141 83z" />
    <glyph glyph-name="Ydieresis" unicode="&#x178;" horiz-adv-x="1449" 
d="M196 1245q-18 29 -18 63q0 64 49.5 110t118.5 46q37 0 66 -17.5t43.5 -36.5t34.5 -55l275 -483l392 483q29 36 48 55.5t52 36.5t71 17q59 0 96 -34.5t37 -87.5t-36 -97l-536 -654l-56 -452q-9 -73 -58 -118t-121 -45q-71 0 -109 45t-29 118l55 451z" />
    <glyph glyph-name="Zacute" unicode="&#x179;" horiz-adv-x="1463" 
d="M186 0q-60 0 -96 35t-36 92q0 35 15.5 69t30 52t37.5 42l834 856h-642q-61 0 -98.5 35t-37.5 91q0 70 50.5 119t121.5 49h937q59 0 96.5 -35.5t37.5 -92.5q0 -80 -83 -165l-826 -853h654q60 0 97.5 -36t37.5 -92q0 -70 -49.5 -118t-121.5 -48h-959z" />
    <glyph glyph-name="zacute" unicode="&#x17a;" horiz-adv-x="1198" 
d="M169 0q-57 0 -91.5 32.5t-34.5 86.5q0 76 86 157l577 556h-442q-56 0 -90 32t-34 84q0 64 45 108t112 44h711q57 0 91 -32.5t34 -85.5q0 -77 -82 -154l-584 -560h469q56 0 90 -32t34 -84q0 -64 -45.5 -108t-111.5 -44h-734z" />
    <glyph glyph-name="Zdotaccent" unicode="&#x17b;" horiz-adv-x="1463" 
d="M186 0q-60 0 -96 35t-36 92q0 35 15.5 69t30 52t37.5 42l834 856h-642q-61 0 -98.5 35t-37.5 91q0 70 50.5 119t121.5 49h937q59 0 96.5 -35.5t37.5 -92.5q0 -80 -83 -165l-826 -853h654q60 0 97.5 -36t37.5 -92q0 -70 -49.5 -118t-121.5 -48h-959z" />
    <glyph glyph-name="zdotaccent" unicode="&#x17c;" horiz-adv-x="1198" 
d="M169 0q-57 0 -91.5 32.5t-34.5 86.5q0 76 86 157l577 556h-442q-56 0 -90 32t-34 84q0 64 45 108t112 44h711q57 0 91 -32.5t34 -85.5q0 -77 -82 -154l-584 -560h469q56 0 90 -32t34 -84q0 -64 -45.5 -108t-111.5 -44h-734z" />
    <glyph glyph-name="Zcaron" unicode="&#x17d;" horiz-adv-x="1463" 
d="M186 0q-60 0 -96 35t-36 92q0 35 15.5 69t30 52t37.5 42l834 856h-642q-61 0 -98.5 35t-37.5 91q0 70 50.5 119t121.5 49h937q59 0 96.5 -35.5t37.5 -92.5q0 -80 -83 -165l-826 -853h654q60 0 97.5 -36t37.5 -92q0 -70 -49.5 -118t-121.5 -48h-959z" />
    <glyph glyph-name="zcaron" unicode="&#x17e;" horiz-adv-x="1198" 
d="M169 0q-57 0 -91.5 32.5t-34.5 86.5q0 76 86 157l577 556h-442q-56 0 -90 32t-34 84q0 64 45 108t112 44h711q57 0 91 -32.5t34 -85.5q0 -77 -82 -154l-584 -560h469q56 0 90 -32t34 -84q0 -64 -45.5 -108t-111.5 -44h-734z" />
    <glyph glyph-name="AEacute" unicode="&#x1fc;" horiz-adv-x="2979" 
d="M128 -28q-56 0 -94.5 38.5t-38.5 93.5q0 51 37 122l526 994q69 131 145.5 190.5t188.5 59.5t174 -58.5t99 -191.5l283 -994q11 -41 11 -81q0 -74 -53 -123.5t-117 -49.5q-121 0 -146 102l-60 230h-667l-117 -230q-52 -102 -171 -102zM568 604h436l-148 566zM1704 163
l137 1114q9 73 58 118t120 45h749q64 0 103 -37t39 -97q0 -76 -52 -127.5t-128 -51.5h-590l-32 -254h534q60 0 97 -35.5t37 -91.5q0 -70 -49 -118t-120 -48h-535l-32 -267h593q64 0 103 -37t39 -97q0 -76 -52 -127.5t-129 -51.5h-752q-71 0 -108.5 45t-29.5 118z" />
    <glyph glyph-name="aeacute" unicode="&#x1fd;" horiz-adv-x="2619" 
d="M442 -29q-157 0 -249 76t-92 204q0 143 89 237t257 132l257 59q54 11 79 35t25 66q0 43 -35.5 67.5t-99.5 24.5q-124 0 -252 -101q-93 -64 -144 -64q-50 0 -80 26t-30 69q0 77 73 148q84 86 205.5 133t265.5 47q210 0 313.5 -99t79.5 -288l-53 -429q-6 -53 37 -53
q25 0 50 23q28 24 58 24t49 -24t19 -60q0 -79 -68 -153q-39 -43 -96.5 -69.5t-114.5 -26.5q-149 0 -211 123q-133 -127 -332 -127zM423 305q0 -43 35 -68.5t95 -25.5q76 0 134 45t72 114l17 136q-36 -26 -100 -41l-102 -22q-71 -15 -111 -51t-40 -87zM1414 460
q0 187 84 340.5t232 241.5t327 88q220 0 350 -120.5t130 -315.5q0 -124 -45 -181.5t-137 -57.5h-647q4 -98 82.5 -154.5t207.5 -56.5q141 0 232 79q75 46 133 46q98 0 98 -94q0 -67 -53 -128q-69 -83 -194.5 -130t-263.5 -47q-248 0 -392 131.5t-144 358.5zM1736 685h508
q-2 98 -62 153.5t-166 55.5t-180.5 -56t-99.5 -153z" />
    <glyph glyph-name="Oslashacute" unicode="&#x1fe;" horiz-adv-x="1764" 
d="M811 -30q-301 0 -481.5 177t-180.5 464q0 179 65.5 338.5t178 273.5t269.5 180.5t333 66.5q300 0 481 -176.5t181 -463.5q0 -180 -65.5 -339.5t-178 -273.5t-269.5 -180.5t-333 -66.5zM479 657q0 -165 101.5 -266.5t269.5 -101.5q132 0 242 65t173 178.5t63 250.5
q0 165 -102 266.5t-270 101.5q-201 0 -339 -143t-138 -351z" />
    <glyph glyph-name="oslashacute" unicode="&#x1ff;" horiz-adv-x="1378" 
d="M617 -30q-237 0 -381.5 134.5t-144.5 359.5q0 188 86.5 340.5t240 239t342.5 86.5q238 0 382.5 -134.5t144.5 -359.5q0 -188 -87 -340.5t-240.5 -239t-342.5 -86.5zM401 502q0 -116 68.5 -186.5t181.5 -70.5q139 0 232.5 102t93.5 251q0 116 -68.5 186.5t-182.5 70.5
q-138 0 -231.5 -102t-93.5 -251z" />
    <glyph glyph-name="uni0218" unicode="&#x218;" horiz-adv-x="1461" 
d="M673 -30q-292 0 -470 142q-50 40 -78 92.5t-28 105.5q0 74 50.5 125.5t117.5 51.5q60 0 104 -46q73 -86 160.5 -130t204.5 -44q109 0 171.5 43t62.5 117q0 48 -34 76t-99 41l-269 57q-169 35 -256 119t-87 228q0 232 172.5 377t448.5 145q243 0 427 -131q51 -36 79 -86.5
t28 -104.5q0 -79 -45.5 -129.5t-112.5 -50.5q-68 0 -140 61q-114 145 -304 145q-91 0 -151.5 -38t-60.5 -113q0 -50 36 -74t116 -43l256 -60q160 -38 246.5 -116t86.5 -225q0 -239 -175 -387t-457 -148z" />
    <glyph glyph-name="uni0219" unicode="&#x219;" horiz-adv-x="1203" 
d="M535 -30q-135 0 -245 42t-164 113q-48 54 -48 117q0 68 39 106t96 38q35 0 63.5 -14.5t64.5 -49.5q104 -103 239 -103q74 0 115 28t41 80q0 71 -106 93l-161 35q-142 32 -216 105t-74 180q0 174 136 282t354 108q107 0 198 -26t147 -72q80 -66 80 -149q0 -62 -40 -99.5
t-93 -37.5q-34 0 -64.5 16.5t-72.5 52.5q-82 75 -191 75q-63 0 -101.5 -26t-38.5 -71q0 -68 108 -89l173 -38q279 -63 279 -278q0 -188 -142.5 -303t-375.5 -115z" />
    <glyph glyph-name="uni021A" unicode="&#x21a;" horiz-adv-x="1400" 
d="M630 -24q-71 0 -109.5 45t-29.5 118l121 988h-312q-63 0 -102 37t-39 97q0 76 52 127.5t128 51.5h941q63 0 102 -37t39 -97q0 -76 -52 -127.5t-127 -51.5h-313l-121 -988q-9 -73 -58 -118t-120 -45z" />
    <glyph glyph-name="uni021B" unicode="&#x21b;" horiz-adv-x="1082" 
d="M559 -30q-154 0 -241 97t-68 256l62 508h-109q-57 0 -91 32.5t-34 83.5q0 65 45.5 109t112.5 44h110l21 174q8 69 55.5 112.5t114.5 43.5q66 0 102 -43.5t28 -112.5l-21 -174h246q56 0 90 -32t34 -84q0 -64 -45.5 -108.5t-111.5 -44.5h-246l-57 -463q-15 -114 79 -114
q45 0 110 47q56 38 107 38q47 0 74.5 -28t27.5 -73q0 -93 -89 -166q-57 -47 -139 -74.5t-167 -27.5z" />
    <glyph glyph-name="uni0237" unicode="&#x237;" horiz-adv-x="704" 
d="M104 -270q-68 0 -123.5 25t-85.5 68q-19 30 -19 67q0 56 36 101t81 45q15 0 26 -7q29 -18 67 -18q35 0 58 30t30 80l104 847q8 69 55.5 112.5t113.5 43.5q65 0 102 -43.5t29 -112.5l-109 -886q-20 -162 -118.5 -257t-246.5 -95zM314 1390q0 79 54.5 133t133.5 54
q67 0 107 -39.5t40 -101.5q0 -79 -54.5 -133t-133.5 -54q-67 0 -107 39.5t-40 101.5z" />
    <glyph glyph-name="pi" unicode="&#x3c0;" horiz-adv-x="1371" 
d="M1017 -30q-144 0 -216.5 92.5t-53.5 250.5l64 518h-178l-86 -699q-8 -69 -55.5 -112.5t-112.5 -43.5q-66 0 -102.5 44t-28.5 112l86 699h-126q-56 0 -90 32.5t-34 83.5q0 64 45.5 108.5t111.5 44.5h1026q56 0 90.5 -32t34.5 -84q0 -65 -45.5 -109t-112.5 -44h-124
l-59 -478q-6 -44 7.5 -73t43.5 -29q19 0 59 16q18 8 29 8q36 0 60.5 -31.5t24.5 -76.5q0 -63 -39 -105q-87 -92 -219 -92z" />
    <glyph glyph-name="Wgrave" unicode="&#x1e80;" horiz-adv-x="2247" 
d="M553 -26q-108 0 -176.5 79.5t-81.5 211.5l-113 973q-2 31 2 60q7 71 62 118.5t127 47.5q60 0 99.5 -35.5t43.5 -93.5l90 -999l357 902q38 100 109.5 163t162.5 63q90 0 146.5 -62t70.5 -164l136 -904l336 1001q18 59 65.5 94t109.5 35q65 0 107.5 -40.5t42.5 -101.5
q0 -40 -16 -84l-351 -972q-46 -133 -133.5 -212.5t-196.5 -79.5q-110 0 -176.5 82.5t-83.5 227.5l-106 772l-297 -772q-52 -145 -139 -227.5t-197 -82.5z" />
    <glyph glyph-name="wgrave" unicode="&#x1e81;" horiz-adv-x="2001" 
d="M488 -30q-186 0 -226 248l-125 708q-3 18 -3 32q0 80 50.5 125.5t123.5 45.5q56 0 91 -31t42 -87l112 -697l298 645q35 78 86 123.5t134 45.5t123 -45t56 -124l140 -646l283 698q20 55 63 86.5t99 31.5q63 0 101 -33.5t38 -88.5q0 -38 -18 -81l-299 -708
q-100 -248 -287 -248q-183 0 -233 248l-113 529l-243 -529q-110 -248 -293 -248z" />
    <glyph glyph-name="Wacute" unicode="&#x1e82;" horiz-adv-x="2247" 
d="M553 -26q-108 0 -176.5 79.5t-81.5 211.5l-113 973q-2 31 2 60q7 71 62 118.5t127 47.5q60 0 99.5 -35.5t43.5 -93.5l90 -999l357 902q38 100 109.5 163t162.5 63q90 0 146.5 -62t70.5 -164l136 -904l336 1001q18 59 65.5 94t109.5 35q65 0 107.5 -40.5t42.5 -101.5
q0 -40 -16 -84l-351 -972q-46 -133 -133.5 -212.5t-196.5 -79.5q-110 0 -176.5 82.5t-83.5 227.5l-106 772l-297 -772q-52 -145 -139 -227.5t-197 -82.5z" />
    <glyph glyph-name="wacute" unicode="&#x1e83;" horiz-adv-x="2001" 
d="M488 -30q-186 0 -226 248l-125 708q-3 18 -3 32q0 80 50.5 125.5t123.5 45.5q56 0 91 -31t42 -87l112 -697l298 645q35 78 86 123.5t134 45.5t123 -45t56 -124l140 -646l283 698q20 55 63 86.5t99 31.5q63 0 101 -33.5t38 -88.5q0 -38 -18 -81l-299 -708
q-100 -248 -287 -248q-183 0 -233 248l-113 529l-243 -529q-110 -248 -293 -248z" />
    <glyph glyph-name="Wdieresis" unicode="&#x1e84;" horiz-adv-x="2247" 
d="M553 -26q-108 0 -176.5 79.5t-81.5 211.5l-113 973q-2 31 2 60q7 71 62 118.5t127 47.5q60 0 99.5 -35.5t43.5 -93.5l90 -999l357 902q38 100 109.5 163t162.5 63q90 0 146.5 -62t70.5 -164l136 -904l336 1001q18 59 65.5 94t109.5 35q65 0 107.5 -40.5t42.5 -101.5
q0 -40 -16 -84l-351 -972q-46 -133 -133.5 -212.5t-196.5 -79.5q-110 0 -176.5 82.5t-83.5 227.5l-106 772l-297 -772q-52 -145 -139 -227.5t-197 -82.5z" />
    <glyph glyph-name="wdieresis" unicode="&#x1e85;" horiz-adv-x="2001" 
d="M488 -30q-186 0 -226 248l-125 708q-3 18 -3 32q0 80 50.5 125.5t123.5 45.5q56 0 91 -31t42 -87l112 -697l298 645q35 78 86 123.5t134 45.5t123 -45t56 -124l140 -646l283 698q20 55 63 86.5t99 31.5q63 0 101 -33.5t38 -88.5q0 -38 -18 -81l-299 -708
q-100 -248 -287 -248q-183 0 -233 248l-113 529l-243 -529q-110 -248 -293 -248z" />
    <glyph glyph-name="Ygrave" unicode="&#x1ef2;" horiz-adv-x="1449" 
d="M196 1245q-18 29 -18 63q0 64 49.5 110t118.5 46q37 0 66 -17.5t43.5 -36.5t34.5 -55l275 -483l392 483q29 36 48 55.5t52 36.5t71 17q59 0 96 -34.5t37 -87.5t-36 -97l-536 -654l-56 -452q-9 -73 -58 -118t-121 -45q-71 0 -109 45t-29 118l55 451z" />
    <glyph glyph-name="ygrave" unicode="&#x1ef3;" horiz-adv-x="1300" 
d="M200 845q-26 75 -26 129q0 67 46.5 111t116.5 44q64 0 96.5 -34t55.5 -113l173 -528l288 520q47 87 89 121t104 34q57 0 94 -32.5t37 -80.5q0 -64 -59 -166l-484 -837q-84 -144 -189 -213t-244 -69q-145 0 -233 77q-53 45 -53 112q0 64 43.5 113t99.5 49q33 0 62 -21
q44 -47 102 -47q79 0 141 83z" />
    </font>
</defs>
</svg>
